<svg xmlns="http://www.w3.org/2000/svg" xmlns:xlink="http://www.w3.org/1999/xlink" width="45" height="39" viewBox="0 0 45 39">
  <metadata><?xpacket begin="﻿" id="W5M0MpCehiHzreSzNTczkc9d"?>
<x:xmpmeta xmlns:x="adobe:ns:meta/" x:xmptk="Adobe XMP Core 5.6-c142 79.160924, 2017/07/13-01:06:39        ">
   <rdf:RDF xmlns:rdf="http://www.w3.org/1999/02/22-rdf-syntax-ns#">
      <rdf:Description rdf:about=""/>
   </rdf:RDF>
</x:xmpmeta>
                                                                                                    
                                                                                                    
                                                                                                    
                                                                                                    
                                                                                                    
                                                                                                    
                                                                                                    
                                                                                                    
                                                                                                    
                                                                                                    
                                                                                                    
                                                                                                    
                                                                                                    
                                                                                                    
                                                                                                    
                                                                                                    
                                                                                                    
                                                                                                    
                                                                                                    
                                                                                                    
                           
<?xpacket end="w"?></metadata>
<defs>
    <style>
      .cls-1 {
        fill-rule: evenodd;
        filter: url(#filter);
      }
    </style>
    <filter id="filter" x="888" y="1325" width="45" height="39" filterUnits="userSpaceOnUse">
      <feFlood result="flood" flood-color="#fff"/>
      <feComposite result="composite" operator="in" in2="SourceGraphic"/>
      <feBlend result="blend" in2="SourceGraphic"/>
    </filter>
  </defs>
  <path id="Forma_1" data-name="Forma 1" class="cls-1" d="M925.347,1364H893.41a5.442,5.442,0,0,1-5.41-5.46v-22.41a5.44,5.44,0,0,1,5.41-5.45h9.109l15.183-5.64a0.723,0.723,0,0,1,.522.02,0.7,0.7,0,0,1,.345.4l0.646,1.97,3.983-1.28a0.69,0.69,0,0,1,.526.06,0.675,0.675,0,0,1,.325.42l1.041,4.05h0.257a5.433,5.433,0,0,1,5.41,5.45v5.61a3.111,3.111,0,0,1,2.243,2.99v5.22a3.1,3.1,0,0,1-2.243,2.98v5.61A5.442,5.442,0,0,1,925.347,1364Zm-31.937-31.97a4.091,4.091,0,0,0-4.071,4.1v22.41a4.093,4.093,0,0,0,4.071,4.11h31.937a4.093,4.093,0,0,0,4.07-4.11v-5.5H917.464a2.922,2.922,0,0,1-2.913-2.93v-5.54a2.931,2.931,0,0,1,2.913-2.94h11.953v-5.5a4.09,4.09,0,0,0-4.07-4.1H893.41Zm22.48,17.92a1.737,1.737,0,0,0,1.731,1.74H929.93a1.737,1.737,0,0,0,1.731-1.74v-5.22a1.74,1.74,0,0,0-1.731-1.75H917.621a1.74,1.74,0,0,0-1.731,1.75v5.22h0Zm4.392-19.27h3.425l-0.778-3.02-3.293,1.05Zm-13.888,0h12.477l-0.716-2.18a0.045,0.045,0,0,0-.006-0.02h0l-0.633-1.93Zm13.4,19.21a2.555,2.555,0,1,1,2.535-2.55A2.544,2.544,0,0,1,919.8,1349.89Zm0-3.76a1.205,1.205,0,1,0,1.2,1.21A1.2,1.2,0,0,0,919.8,1346.13Z" transform="translate(-888 -1325)"/>
</svg>
