<?xml version="1.0" encoding="utf-8"?>
<!-- Generator: Adobe Illustrator 18.1.1, SVG Export Plug-In . SVG Version: 6.00 Build 0)  -->
<svg version="1.1" id="Capa_1" xmlns="http://www.w3.org/2000/svg" xmlns:xlink="http://www.w3.org/1999/xlink" x="0px" y="0px"
	 viewBox="0 0 595.3 841.9" enable-background="new 0 0 595.3 841.9" xml:space="preserve">
<path fill="#FFFFFF" d="M550.8,585.1l-97-42c-2.3-1.1-4.8-3.9-7-7.6l64.7,0c1.1,0.1,27.8,2.5,49.2-6.6c8.1-3.5,14.1-10.4,16.6-18.9
	c2.4-8.6,0.9-17.7-4.2-25c-18.5-26.3-61.7-95.1-63-164.9c0-1.2-3.9-119.9-121.1-120.8c-17.3,0.1-33.2,3.1-47.7,8.5
	c-3.2-8.1-7.8-16.5-14.8-24.4c-20.4-23.3-53.4-35-98.3-35s-77.9,11.8-98.3,35c-23.5,26.8-21.3,59.3-20.8,64.7v52.8
	c-6.3,7.2-9.9,16.5-9.9,26v39.7c0,12.1,5.5,23.3,14.9,30.8c9.1,36,28.1,63.1,34.8,71.8v32.8c0,9.6-5.2,18.4-13.7,23l-88.5,48.3
	C17.9,588.9,0,619,0,651.7v42h436.5h19.8h138.9v-36.7C595.3,626.4,578.2,598.9,550.8,585.1z M436.5,673.9H19.8v-22.2
	c0-25.5,13.9-49,36.3-61.2l88.5-48.3c14.8-8.1,24-23.6,24-40.4V462l-2.3-2.8c-0.2-0.3-24.6-29.7-33.8-70.1l-0.9-3.9l-3.4-2.2
	c-5.7-3.7-9.2-9.9-9.2-16.6v-39.7c0-5.6,2.4-10.8,6.6-14.6l3.3-2.9v-61.8l-0.1-1.3c0-0.3-3.4-27.8,15.9-49.8
	c16.4-18.8,44.5-28.3,83.4-28.3c38.7,0,66.7,9.4,83.2,28.1c8.2,9.2,12.3,19.6,14.4,28.4c0.2,0.7,0.3,1.4,0.4,2.1
	c0.1,0.7,0.3,1.4,0.4,2.1c0.1,0.8,0.2,1.5,0.3,2.2c0.1,0.5,0.2,1.1,0.2,1.6c0.1,1.2,0.3,2.4,0.3,3.5c0,0.1,0,0.2,0,0.3
	c0.1,1.1,0.1,2.1,0.1,3c0,0.2,0,0.3,0,0.5c0,0.8,0,1.6,0,2.3c0,0.1,0,0.2,0,0.3c0,2.3-0.2,3.7-0.2,3.8l-0.1,63.1l3.3,3
	c4.3,3.9,6.6,9.1,6.6,14.6v39.7c0,8.7-5.7,16.2-14.1,18.8l-4.9,1.5l-1.6,4.9c-6.6,20.6-16.1,39.7-28.1,56.7
	c-2.9,4.2-5.8,7.9-8.3,10.7l-2.5,2.8v40.9c0,2.5,0.2,5,0.6,7.4c0.1,0.5,0.2,1,0.3,1.5c0.4,2,0.9,3.9,1.5,5.9
	c0.1,0.4,0.3,0.9,0.5,1.3c0.8,2.1,1.7,4.1,2.7,6c0.1,0.2,0.2,0.4,0.3,0.7c1.4,2.5,3.1,5,5,7.2l2.3,2.8h0.4c3.4,3.4,7.3,6.3,11.8,8.5
	l94.8,47.4c23.8,11.9,38.5,35.7,38.5,62.3V673.9z M575.4,673.9H456.4v-20.3c0-34.1-19-64.8-49.5-80l-68-34c1.7-3.8,1.9-8.2,0.4-12.4
	c-2.4-7-8.8-11.5-16.2-11.5h-22c-0.5-0.8-0.8-1.7-1.1-2.5c-0.5-1.1-1.1-2.3-1.4-3.5c-0.6-2.2-1-4.5-1-6.9v-33.5
	c2.3-2.8,4.7-5.9,7.1-9.4c12.3-17.4,22.1-36.7,29.3-57.5c14-6.4,23.1-20.3,23.1-35.9v-39.7c0-9.6-3.6-18.8-9.9-26v-52.8
	c0.3-2.5,0.8-10.6-0.8-21.2c12.8-5,27.1-7.6,42.6-7.7c97.6,0.8,101.2,97.3,101.3,101.4c1.5,75.2,47.1,148.1,66.6,175.9
	c1.7,2.4,2.2,5.4,1.4,8.2c-0.5,1.6-1.8,4.6-5.3,6.1c-16.7,7.2-39.3,5.1-40.4,5.1h-68.3c-6.4,0-12.2,3.2-15.6,8.7
	c-3.4,5.4-3.7,12-0.9,17.7c3.1,6.3,8.6,14.6,17.6,19.1l96.7,41.9c20.5,10.4,33.3,31.1,33.3,54.1V673.9z"/>
</svg>
