<svg xmlns="http://www.w3.org/2000/svg" viewBox="0 247.6 513.7 594.3"><path fill="#FFF" d="M392 423.4c7.4 0 13.5-6 13.5-13.5v-67.7c0-22.3-18.3-40.6-40.6-40.6h-22.8c-15.2-32-47.8-54.1-85.5-54.1H148.4c-37.7 0-70.2 22.2-85.5 54.1H40.2c-22.3 0-40.6 18.3-40.6 40.6v459.9c0 22.3 18.3 40.6 40.6 40.6h324.7c22.3 0 40.6-18.3 40.6-40.6v-67.7c0-7.4-6-13.5-13.5-13.5-7.4 0-13.5 6-13.5 13.5v67.7c0 7.4-6 13.5-13.5 13.5H40.2c-7.4 0-13.5-6-13.5-13.5v-460c0-7.4 6-13.5 13.5-13.5h14.6c-.6 4.4-1 9-1 13.5v27.1c0 7.4 6 13.5 13.5 13.5h270.6c7.4 0 13.5-6 13.5-13.5v-27.1c0-4.7-.5-9.1-1-13.5H365c7.4 0 13.5 6 13.5 13.5v67.7c-.1 7.4 5.9 13.6 13.5 13.6zm-67.7-67.7H80.7v-13.5c0-37.3 30.3-67.7 67.7-67.7h108.2c37.3 0 67.7 30.3 67.7 67.7v13.5z"/><circle fill="#FFF" cx="202.6" cy="315.1" r="13.5"/><path fill="#FFF" d="M310.7 423.4H94.3c-7.4 0-13.5 6-13.5 13.5 0 7.4 6 13.5 13.5 13.5h216.5c7.4 0 13.5-6 13.5-13.5s-6-13.5-13.6-13.5zm-67.5 67.5H94.3c-7.4 0-13.5 6-13.5 13.5 0 7.4 6 13.5 13.5 13.5h148.8c7.4 0 13.5-6 13.5-13.5 0-7.3-6-13.5-13.4-13.5zm-13.6 67.7H94.3c-7.4 0-13.5 6-13.5 13.5 0 7.4 6 13.5 13.5 13.5h135.3c7.4 0 13.5-6 13.5-13.5.1-7.5-6-13.5-13.5-13.5zm81.1 135.3H202.5c-7.4 0-13.5 6-13.5 13.5 0 7.4 6 13.5 13.5 13.5h108.2c7.4 0 13.5-6 13.5-13.5 0-7.4-5.9-13.5-13.5-13.5zm-162.3 0H94.3c-7.4 0-13.5 6-13.5 13.5 0 7.4 6 13.5 13.5 13.5h54.1c7.4 0 13.5-6 13.5-13.5 0-7.4-6.1-13.5-13.5-13.5zm94.8-67.7H94.3c-7.4 0-13.5 6-13.5 13.5 0 7.4 5.9 13.6 13.5 13.6h148.8c7.4 0 13.5-6 13.5-13.5s-6-13.6-13.4-13.6zM392 450.3c-67.1 0-121.7 54.6-121.7 121.7S324.9 693.8 392 693.8s121.7-54.6 121.7-121.7S459.1 450.3 392 450.3zm0 216.5c-52.2 0-94.8-42.4-94.8-94.8s42.4-94.8 94.8-94.8 94.8 42.4 94.8 94.8-42.6 94.8-94.8 94.8z"/><path fill="#FFF" d="M439.5 520c-6.4-3.8-14.8-1.7-18.6 4.7l-31.6 52.8-28.4-28.5c-5.3-5.3-13.8-5.3-19.2 0-5.3 5.3-5.3 13.8 0 19.2l40.6 40.6c2.6 2.6 5.9 4 9.5 4 .6 0 1.2 0 1.6-.1 4.2-.5 7.8-2.9 10-6.5l40.6-67.7c4-6.4 1.9-14.7-4.5-18.5z"/></svg>