<?xml version="1.0" encoding="utf-8"?>
<!-- Generator: Adobe Illustrator 18.1.1, SVG Export Plug-In . SVG Version: 6.00 Build 0)  -->
<svg version="1.1" id="Layer_1" xmlns="http://www.w3.org/2000/svg" xmlns:xlink="http://www.w3.org/1999/xlink" x="0px" y="0px"
	 viewBox="0 247.6 513.7 594.3" enable-background="new 0 247.6 513.7 594.3" xml:space="preserve">
<g>
	<g>
		<path fill="#FFFFFF" d="M392,423.4c7.4,0,13.5-6,13.5-13.5v-67.7c0-22.3-18.3-40.6-40.6-40.6h-22.8c-15.2-32-47.8-54.1-85.5-54.1
			H148.4c-37.7,0-70.2,22.2-85.5,54.1H40.2c-22.3,0-40.6,18.3-40.6,40.6v459.9c0,22.3,18.3,40.6,40.6,40.6h324.7
			c22.3,0,40.6-18.3,40.6-40.6v-67.7c0-7.4-6-13.5-13.5-13.5c-7.4,0-13.5,6-13.5,13.5v67.7c0,7.4-6,13.5-13.5,13.5H40.2
			c-7.4,0-13.5-6-13.5-13.5V342.1c0-7.4,6-13.5,13.5-13.5h14.6c-0.6,4.4-1,9-1,13.5v27.1c0,7.4,6,13.5,13.5,13.5h270.6
			c7.4,0,13.5-6,13.5-13.5v-27.1c0-4.7-0.5-9.1-1-13.5h14.6c7.4,0,13.5,6,13.5,13.5v67.7C378.4,417.2,384.4,423.4,392,423.4z
			 M324.3,355.7H80.7v-13.5c0-37.3,30.3-67.7,67.7-67.7h108.2c37.3,0,67.7,30.3,67.7,67.7V355.7L324.3,355.7z"/>
	</g>
</g>
<g>
	<g>
		<circle fill="#FFFFFF" cx="202.6" cy="315.1" r="13.5"/>
	</g>
</g>
<g>
	<g>
		<path fill="#FFFFFF" d="M310.7,423.4H94.3c-7.4,0-13.5,6-13.5,13.5c0,7.4,6,13.5,13.5,13.5h216.5c7.4,0,13.5-6,13.5-13.5
			S318.3,423.4,310.7,423.4z"/>
	</g>
</g>
<g>
	<g>
		<path fill="#FFFFFF" d="M243.2,490.9H94.3c-7.4,0-13.5,6-13.5,13.5c0,7.4,6,13.5,13.5,13.5h148.8c7.4,0,13.5-6,13.5-13.5
			C256.6,497.1,250.6,490.9,243.2,490.9z"/>
	</g>
</g>
<g>
	<g>
		<path fill="#FFFFFF" d="M229.6,558.6H94.3c-7.4,0-13.5,6-13.5,13.5c0,7.4,6,13.5,13.5,13.5h135.3c7.4,0,13.5-6,13.5-13.5
			C243.2,564.6,237.1,558.6,229.6,558.6z"/>
	</g>
</g>
<g>
	<g>
		<path fill="#FFFFFF" d="M310.7,693.9H202.5c-7.4,0-13.5,6-13.5,13.5c0,7.4,6,13.5,13.5,13.5h108.2c7.4,0,13.5-6,13.5-13.5
			C324.2,700,318.3,693.9,310.7,693.9z"/>
	</g>
</g>
<g>
	<g>
		<path fill="#FFFFFF" d="M148.4,693.9H94.3c-7.4,0-13.5,6-13.5,13.5c0,7.4,6,13.5,13.5,13.5h54.1c7.4,0,13.5-6,13.5-13.5
			C161.9,700,155.8,693.9,148.4,693.9z"/>
	</g>
</g>
<g>
	<g>
		<path fill="#FFFFFF" d="M243.2,626.2H94.3c-7.4,0-13.5,6-13.5,13.5c0,7.4,5.9,13.6,13.5,13.6h148.8c7.4,0,13.5-6,13.5-13.5
			S250.6,626.2,243.2,626.2z"/>
	</g>
</g>
<g>
	<g>
		<path fill="#FFFFFF" d="M392,450.3c-67.1,0-121.7,54.6-121.7,121.7S324.9,693.8,392,693.8s121.7-54.6,121.7-121.7
			S459.1,450.3,392,450.3z M392,666.8c-52.2,0-94.8-42.4-94.8-94.8s42.4-94.8,94.8-94.8s94.8,42.4,94.8,94.8S444.2,666.8,392,666.8z
			"/>
	</g>
</g>
<g>
	<g>
		<path fill="#FFFFFF" d="M439.5,520c-6.4-3.8-14.8-1.7-18.6,4.7l-31.6,52.8L360.9,549c-5.3-5.3-13.8-5.3-19.2,0
			c-5.3,5.3-5.3,13.8,0,19.2l40.6,40.6c2.6,2.6,5.9,4,9.5,4c0.6,0,1.2,0,1.6-0.1c4.2-0.5,7.8-2.9,10-6.5l40.6-67.7
			C448,532.1,445.9,523.8,439.5,520z"/>
	</g>
</g>
</svg>
