<svg xmlns="http://www.w3.org/2000/svg" viewBox="0 0 595.3 841.9"><path fill="#FFF" d="M550.8 585.1l-97-42c-2.3-1.1-4.8-3.9-7-7.6h64.7c1.1.1 27.8 2.5 49.2-6.6 8.1-3.5 14.1-10.4 16.6-18.9 2.4-8.6.9-17.7-4.2-25-18.5-26.3-61.7-95.1-63-164.9 0-1.2-3.9-119.9-121.1-120.8-17.3.1-33.2 3.1-47.7 8.5-3.2-8.1-7.8-16.5-14.8-24.4-20.4-23.3-53.4-35-98.3-35s-77.9 11.8-98.3 35c-23.5 26.8-21.3 59.3-20.8 64.7v52.8c-6.3 7.2-9.9 16.5-9.9 26v39.7c0 12.1 5.5 23.3 14.9 30.8 9.1 36 28.1 63.1 34.8 71.8V502c0 9.6-5.2 18.4-13.7 23l-88.5 48.3A89.155 89.155 0 0 0 0 651.7v42h595.2V657c.1-30.6-17-58.1-44.4-71.9zm-114.3 88.8H19.8v-22.2c0-25.5 13.9-49 36.3-61.2l88.5-48.3c14.8-8.1 24-23.6 24-40.4V462l-2.3-2.8c-.2-.3-24.6-29.7-33.8-70.1l-.9-3.9-3.4-2.2c-5.7-3.7-9.2-9.9-9.2-16.6v-39.7c0-5.6 2.4-10.8 6.6-14.6l3.3-2.9v-61.8l-.1-1.3c0-.3-3.4-27.8 15.9-49.8 16.4-18.8 44.5-28.3 83.4-28.3 38.7 0 66.7 9.4 83.2 28.1 8.2 9.2 12.3 19.6 14.4 28.4.2.7.3 1.4.4 2.1.1.7.3 1.4.4 2.1.1.8.2 1.5.3 2.2.1.5.2 1.1.2 1.6.1 1.2.3 2.4.3 3.5v.3c.1 1.1.1 2.1.1 3v3.1c0 2.3-.2 3.7-.2 3.8l-.1 63.1 3.3 3c4.3 3.9 6.6 9.1 6.6 14.6v39.7c0 8.7-5.7 16.2-14.1 18.8l-4.9 1.5-1.6 4.9c-6.6 20.6-16.1 39.7-28.1 56.7-2.9 4.2-5.8 7.9-8.3 10.7l-2.5 2.8v40.9c0 2.5.2 5 .6 7.4l.3 1.5c.4 2 .9 3.9 1.5 5.9.1.4.3.9.5 1.3.8 2.1 1.7 4.1 2.7 6 .1.2.2.4.3.7 1.4 2.5 3.1 5 5 7.2l2.3 2.8h.4c3.4 3.4 7.3 6.3 11.8 8.5l94.8 47.4c23.8 11.9 38.5 35.7 38.5 62.3v20zm138.9 0h-119v-20.3c0-34.1-19-64.8-49.5-80l-68-34c1.7-3.8 1.9-8.2.4-12.4-2.4-7-8.8-11.5-16.2-11.5h-22c-.5-.8-.8-1.7-1.1-2.5-.5-1.1-1.1-2.3-1.4-3.5-.6-2.2-1-4.5-1-6.9v-33.5c2.3-2.8 4.7-5.9 7.1-9.4 12.3-17.4 22.1-36.7 29.3-57.5 14-6.4 23.1-20.3 23.1-35.9v-39.7c0-9.6-3.6-18.8-9.9-26V248c.3-2.5.8-10.6-.8-21.2 12.8-5 27.1-7.6 42.6-7.7 97.6.8 101.2 97.3 101.3 101.4 1.5 75.2 47.1 148.1 66.6 175.9 1.7 2.4 2.2 5.4 1.4 8.2-.5 1.6-1.8 4.6-5.3 6.1-16.7 7.2-39.3 5.1-40.4 5.1h-68.3c-6.4 0-12.2 3.2-15.6 8.7-3.4 5.4-3.7 12-.9 17.7 3.1 6.3 8.6 14.6 17.6 19.1l96.7 41.9c20.5 10.4 33.3 31.1 33.3 54.1v16.6z"/></svg>