<svg xmlns="http://www.w3.org/2000/svg" viewBox="-41 164.9 512 512"><path fill="#FFF" d="M61.4 164.9c-42.4 0-76.8 34.4-76.8 76.8s34.4 76.8 76.8 76.8 76.8-34.4 76.8-76.8-34.4-76.8-76.8-76.8zm0 128c-28.3 0-51.2-22.9-51.2-51.2s22.9-51.2 51.2-51.2 51.2 22.9 51.2 51.2-22.9 51.2-51.2 51.2zm281.6-128c-42.4 0-76.8 34.4-76.8 76.8s34.4 76.8 76.8 76.8 76.8-34.4 76.8-76.8-34.4-76.8-76.8-76.8zm0 128c-28.3 0-51.2-22.9-51.2-51.2s22.9-51.2 51.2-51.2 51.2 22.9 51.2 51.2-22.9 51.2-51.2 51.2zM445.4 490h-3.3l-22.7-124.9c-2.2-12.2-12.8-21-25.2-21H291.8c-5.8 0-11.5 2-16 5.6l-61.1 48.9-89.4-51.1c-3.9-2.2-8.2-3.4-12.7-3.4H10.2c-12.4 0-23 8.8-25.2 21l-25.6 140.8c-1.4 7.5.7 15.2 5.5 21 4.9 5.8 12.1 9.2 19.7 9.2H1l9.3 117.2c1.1 13.3 12.2 23.6 25.5 23.6H87c13.4 0 24.5-10.3 25.5-23.6l11.2-140.8 6.5-63.4 63.8 21.6c2.7.9 5.5 1.4 8.2 1.4 4.4 0 8.7-1.4 12.6-3.7 4 2.4 8.4 3.7 13 3.7 3.7 0 7.4-.8 10.8-2.4l36-16.7 6.2 60.1 11.1 140.2c1.1 13.3 12.2 23.6 25.5 23.6h51.2c13.4 0 24.5-10.3 25.5-23.6l4.2-53.2h47c14.1 0 25.6-11.5 25.6-25.6v-58.9c.1-14.1-11.4-25.6-25.5-25.6zm-243.2-43.5L108 414.6l-9.8 95.9L87 651.3H35.8L24.6 510.5h-40l25.6-140.8h38.4v77.9c0 7.1 5.7 12.8 12.8 12.8 7.1 0 12.8-5.7 12.8-12.8v-77.9h38.4l89.6 51.2v25.6zm166.4 204.8h-51.2l-11.2-140.8-9.8-95.9-68.6 31.9v-25.6l64-51.2h38.4v77.9c0 7.1 5.7 12.8 12.8 12.8 7.1 0 12.8-5.7 12.8-12.8v-77.9h38.4L416.1 490h-52.6c-14.1 0-25.6 11.5-25.6 25.6v58.9c0 14.1 11.5 25.6 25.6 25.6h9.2l-4.1 51.2zm76.8-76.8h-81.9v-58.9h81.9v58.9z"/></svg>