<svg xmlns="http://www.w3.org/2000/svg" xmlns:xlink="http://www.w3.org/1999/xlink" width="13" height="14" viewBox="0 0 13 14">
  <metadata><?xpacket begin="﻿" id="W5M0MpCehiHzreSzNTczkc9d"?>
<x:xmpmeta xmlns:x="adobe:ns:meta/" x:xmptk="Adobe XMP Core 5.6-c142 79.160924, 2017/07/13-01:06:39        ">
   <rdf:RDF xmlns:rdf="http://www.w3.org/1999/02/22-rdf-syntax-ns#">
      <rdf:Description rdf:about=""/>
   </rdf:RDF>
</x:xmpmeta>
                                                                                                    
                                                                                                    
                                                                                                    
                                                                                                    
                                                                                                    
                                                                                                    
                                                                                                    
                                                                                                    
                                                                                                    
                                                                                                    
                                                                                                    
                                                                                                    
                                                                                                    
                                                                                                    
                                                                                                    
                                                                                                    
                                                                                                    
                                                                                                    
                                                                                                    
                                                                                                    
                           
<?xpacket end="w"?></metadata>
<defs>
    <style>
      .cls-1 {
        fill-rule: evenodd;
        filter: url(#filter);
      }
    </style>
    <filter id="filter" x="1170" y="4177" width="13" height="14" filterUnits="userSpaceOnUse">
      <feFlood result="flood" flood-color="#ee772f"/>
      <feComposite result="composite" operator="in" in2="SourceGraphic"/>
      <feBlend result="blend" in2="SourceGraphic"/>
    </filter>
  </defs>
  <path id="fa-rouble" class="cls-1" d="M1178.2,4183.58h-3.25v-4.45h3.25a2.447,2.447,0,0,1,1.74.61,2.294,2.294,0,0,1,0,3.22,2.453,2.453,0,0,1-1.74.62h0Zm0.21-6.57h-5.48a0.341,0.341,0,0,0-.24.09,0.317,0.317,0,0,0-.09.23v6.25h-2.27a0.324,0.324,0,0,0-.24.09,0.317,0.317,0,0,0-.09.23v1.47a0.3,0.3,0,0,0,.09.23,0.324,0.324,0,0,0,.24.09h2.27v1.17h-2.27a0.3,0.3,0,0,0-.24.1,0.279,0.279,0,0,0-.09.22v1.28a0.294,0.294,0,0,0,.09.22,0.324,0.324,0,0,0,.24.09h2.27v1.91a0.317,0.317,0,0,0,.09.23,0.341,0.341,0,0,0,.24.09h1.7a0.31,0.31,0,0,0,.22-0.09,0.29,0.29,0,0,0,.1-0.23v-1.91h5.14a0.317,0.317,0,0,0,.23-0.09,0.294,0.294,0,0,0,.09-0.22v-1.28a0.279,0.279,0,0,0-.09-0.22,0.29,0.29,0,0,0-.23-0.1h-5.14v-1.17h3.46a4.649,4.649,0,0,0,3.32-1.21,4.467,4.467,0,0,0,0-6.26,4.649,4.649,0,0,0-3.32-1.21h0Z" transform="translate(-1170 -4177)"/>
</svg>
