<svg xmlns="http://www.w3.org/2000/svg" width="6.91" height="10.156" viewBox="0 0 6.91 10.156">
  <metadata><?xpacket begin="﻿" id="W5M0MpCehiHzreSzNTczkc9d"?>
<x:xmpmeta xmlns:x="adobe:ns:meta/" x:xmptk="Adobe XMP Core 5.6-c142 79.160924, 2017/07/13-01:06:39        ">
   <rdf:RDF xmlns:rdf="http://www.w3.org/1999/02/22-rdf-syntax-ns#">
      <rdf:Description rdf:about=""/>
   </rdf:RDF>
</x:xmpmeta>
                                                                                                    
                                                                                                    
                                                                                                    
                                                                                                    
                                                                                                    
                                                                                                    
                                                                                                    
                                                                                                    
                                                                                                    
                                                                                                    
                                                                                                    
                                                                                                    
                                                                                                    
                                                                                                    
                                                                                                    
                                                                                                    
                                                                                                    
                                                                                                    
                                                                                                    
                                                                                                    
                           
<?xpacket end="w"?></metadata>
<defs>
    <style>
      .cls-1 {
        fill: #eaeaea;
        fill-rule: evenodd;
      }
    </style>
  </defs>
  <path id="fa-map-marker" class="cls-1" d="M1338.46,55.486a1.7,1.7,0,0,1-1.23-.5,1.689,1.689,0,0,1,0-2.4,1.758,1.758,0,0,1,2.45,0,1.689,1.689,0,0,1,0,2.4A1.692,1.692,0,0,1,1338.46,55.486Zm2.44-4.1a3.5,3.5,0,0,0-4.89,0,3.26,3.26,0,0,0-1.01,2.4,2.722,2.722,0,0,0,.22,1.186l2.47,5.128a0.729,0.729,0,0,0,.31.345,0.87,0.87,0,0,0,.46.126,0.861,0.861,0,0,0,.45-0.126,0.807,0.807,0,0,0,.32-0.345l2.46-5.128a2.722,2.722,0,0,0,.22-1.186A3.26,3.26,0,0,0,1340.9,51.391Z" transform="translate(-1335 -50.406)"/>
</svg>
