<svg xmlns="http://www.w3.org/2000/svg" viewBox="0 0 239.9 240.1"><g fill="#D4E4F0"><path d="M184.7 130.5l-5.5-5.5c2.8-2.8 2.8-7.3 0-10-2.7-2.7-7.3-2.7-10 0l-5.5-5.5 3.9-3.9c2.8-2.8 2.8-7.3 0-10-2.7-2.7-7.3-2.7-10 0l-3.9 3.9-5.5-5.5 7.7-7.7c2.8-2.8 2.8-7.3 0-10-2.8-2.8-7.3-2.8-10 0l-7.7 7.7-5.5-5.5 3.9-3.9c1.3-1.3 2.1-3.1 2.1-5s-.7-3.7-2.1-5c-2.8-2.8-7.3-2.8-10 0l-3.9 3.9-5.5-5.5 3.9-3.9c5.8-5.8 15.2-5.8 21 0 2.3 2.3 3.6 5.1 4.1 8.1 5.2-1.7 11.1-.6 15.2 3.6 4.1 4.1 5.3 10.1 3.6 15.2 2.9.5 5.8 1.9 8.1 4.1 4.1 4.1 5.3 10.1 3.6 15.2 3 .5 5.8 1.9 8.1 4.1 5.6 5.9 5.6 15.3-.1 21.1zM125 175.4l-11.1 11.1-27 11.6-39.2 35.3 5.2 5.8 13.1-12c1.6.8 3.1 1.6 4.7 2.3l3.2-7.1c-.6-.3-1.1-.6-1.7-.8l18.9-17 27.2-11.7 12.1-12.1-5.4-5.4zm0 0"/><path d="M99.6 40.9L40.9 99.6l13.5 13.5 13.3-12.8c3.2-3.2 8.4-3.2 11.6 0 2.7 2.7 3.2 7.1 1 10.3l-11.4 17.1 71.4 71.4 58.7-58.7-99.4-99.5zm34.4 93.2c-7.8 7.8-20.4 7.8-28.2 0-7.8-7.8-7.8-20.4 0-28.2 7.8-7.8 20.4-7.8 28.2 0 7.8 7.8 7.8 20.4 0 28.2zm0 0"/><path d="M120 143.8c-6.4 0-12.3-2.5-16.8-7s-7-10.5-7-16.8c0-6.4 2.5-12.3 7-16.8s10.5-7 16.8-7c6.4 0 12.3 2.5 16.8 7s7 10.5 7 16.8c0 6.4-2.5 12.3-7 16.8s-10.5 7-16.8 7zm0-39.9c-4.3 0-8.3 1.7-11.4 4.7-3 3-4.7 7.1-4.7 11.4 0 4.3 1.7 8.3 4.7 11.4 3 3 7.1 4.7 11.4 4.7 4.3 0 8.3-1.7 11.4-4.7 3-3 4.7-7.1 4.7-11.4 0-4.3-1.7-8.3-4.7-11.4-3.1-3-7.2-4.7-11.4-4.7zm-57.5 33.3l6.4 4.3 17.8-26.6c4.2-6.3 3.4-14.7-2-20.1-6.2-6.2-16.3-6.2-22.5 0l-23.3 23.3-7.7 38.7L19 169c-.3-.7-.7-1.3-1-2l-7 3.2c.7 1.5 1.5 3 2.3 4.5L1 187l5.5 5.5 31.8-31.8L46 122l21.6-21.6c3.2-3.2 8.4-3.2 11.6 0 2.7 2.7 3.2 7.1 1 10.3l-17.7 26.5zM15.7 78.1l-7.2-2.9c-2 5-3.7 10.2-5 15.5l7.5 1.9c1.2-4.9 2.8-9.8 4.7-14.5zm15.1-26.4L24.6 47c-3.3 4.3-6.3 8.9-9 13.6l6.7 3.8c2.6-4.4 5.4-8.7 8.5-12.7zM1.4 139.2c.9 5.3 2.1 10.7 3.7 15.9l7.4-2.3C11 148 9.9 143 9.1 138l-7.7 1.2zM7.6 120c0-4.1.2-8.3.7-12.4l-7.7-.8c-.5 4.4-.7 8.8-.7 13.3v3l7.7-.2c.1-1 0-2 0-2.9zm212.2-66.7c-3-4.5-6.4-8.8-9.9-12.9l-5.8 5.1c3.4 3.8 6.5 7.9 9.3 12.1l6.4-4.3zm-167.4-23l-4.7-6.2c-4.3 3.3-8.5 6.8-12.3 10.7l5.5 5.5c3.5-3.6 7.4-7 11.5-10zm179.8 84.6l7.7-.4c-.2-5.4-.9-10.9-1.8-16.2l-7.6 1.4c.9 5 1.4 10.1 1.7 15.2zm1.9-32.4c-1.7-5.1-3.7-10.2-6.1-15.1l-7 3.4c2.2 4.6 4.1 9.3 5.7 14.1l7.4-2.4zM78.9 15.4L76 8.2c-5 2-10 4.3-14.7 7l3.8 6.8c4.4-2.5 9.1-4.7 13.8-6.6zm44.7-7.7c5.1.2 10.2.7 15.2 1.5l1.3-7.6C134.8.7 129.3.2 123.9 0l-.3 7.7zm53.2 209.2l3.9 6.7c4.7-2.7 9.2-5.8 13.4-9.2l-4.8-6.1c-3.9 3.1-8.1 6-12.5 8.6zm4.3-191.2c4.2 2.8 8.3 5.8 12.2 9.1l5.1-5.9c-4.1-3.5-8.5-6.8-13-9.8l-4.3 6.6zm-27.5-12.9c4.8 1.5 9.6 3.4 14.2 5.5l3.3-7C166.2 9 161 7 155.9 5.4l-2.3 7.4zm65.1 160.8l6.8 3.7c2.6-4.8 4.9-9.7 6.8-14.8l-7.2-2.7c-1.8 4.6-4 9.3-6.4 13.8zm10.7-28.5l7.5 1.7c1.2-5.3 2.1-10.7 2.5-16.1l-7.7-.7c-.3 5.1-1.1 10.2-2.3 15.1zm-28.7 53l5.6 5.4c3.8-3.9 7.3-8.1 10.5-12.4l-6.2-4.6c-3.1 4-6.4 7.9-9.9 11.6zm-51.9 30.5l2 7.5c5.2-1.4 10.4-3.2 15.4-5.2l-3-7.1c-4.6 1.8-9.5 3.5-14.4 4.8zm-62.4 6.7c5.2 1.5 10.6 2.7 15.9 3.5l1.1-7.7c-5-.7-10-1.8-14.9-3.2l-2.1 7.4zm5.1-232l1.8 7.5c4.9-1.2 10-2.1 15-2.6l-.8-7.7c-5.3.6-10.7 1.5-16 2.8zm28.4 229h-1.3l-.1 7.7h1.4c5 0 10-.3 14.9-.9l-1-7.7c-4.5.6-9.2.9-13.9.9zm0 0"/></g></svg>