<svg xmlns="http://www.w3.org/2000/svg" xmlns:xlink="http://www.w3.org/1999/xlink" width="227" height="257" viewBox="0 0 227 257">
  <metadata><?xpacket begin="﻿" id="W5M0MpCehiHzreSzNTczkc9d"?>
<x:xmpmeta xmlns:x="adobe:ns:meta/" x:xmptk="Adobe XMP Core 5.6-c142 79.160924, 2017/07/13-01:06:39        ">
   <rdf:RDF xmlns:rdf="http://www.w3.org/1999/02/22-rdf-syntax-ns#">
      <rdf:Description rdf:about=""/>
   </rdf:RDF>
</x:xmpmeta>
                                                                                                    
                                                                                                    
                                                                                                    
                                                                                                    
                                                                                                    
                                                                                                    
                                                                                                    
                                                                                                    
                                                                                                    
                                                                                                    
                                                                                                    
                                                                                                    
                                                                                                    
                                                                                                    
                                                                                                    
                                                                                                    
                                                                                                    
                                                                                                    
                                                                                                    
                                                                                                    
                           
<?xpacket end="w"?></metadata>
<defs>
    <style>
      .cls-1 {
        fill-rule: evenodd;
        filter: url(#filter);
      }
    </style>
    <filter id="filter" x="338" y="2992" width="227" height="257" filterUnits="userSpaceOnUse">
      <feFlood result="flood" flood-color="#d4e4f0"/>
      <feComposite result="composite" operator="in" in2="SourceGraphic"/>
      <feBlend result="blend" in2="SourceGraphic"/>
    </filter>
  </defs>
  <path id="Forma_1" data-name="Forma 1" class="cls-1" d="M556.269,3048.54H551.9v-41.12c0-8.52-5.863-15.42-13.1-15.42H364.192c-7.233,0-13.1,6.9-13.1,15.42v41.12h-4.365c-4.822,0-8.731,4.6-8.731,10.28v41.12c0,5.68,3.909,10.28,8.731,10.28H351.1v123.36c0,8.51,5.863,15.42,13.1,15.42H538.808c7.233,0,13.1-6.91,13.1-15.42V3110.22h4.365c4.822,0,8.731-4.6,8.731-10.28v-41.12C565,3053.14,561.091,3048.54,556.269,3048.54ZM351.1,3099.94h-4.365v-41.12H351.1v41.12Zm192.077,133.64c0,2.84-1.955,5.14-4.365,5.14H364.192c-2.41,0-4.365-2.3-4.365-5.14V3084.52H543.173v149.06Zm0-159.34H359.827v-66.82c0-2.84,1.955-5.14,4.365-5.14H538.808c2.41,0,4.365,2.3,4.365,5.14v66.82Zm13.1,25.7H551.9v-41.12h4.365v41.12Zm-144.058,25.7H386.019c-4.822,0-8.731,4.6-8.731,10.28v20.56c0,5.68,3.909,10.28,8.731,10.28h26.192c4.823,0,8.731-4.6,8.731-10.28v-20.56C420.942,3130.24,417.034,3125.64,412.211,3125.64Zm0,30.84H386.019v-20.56h26.192v20.56Zm52.385-30.84H438.4c-4.822,0-8.731,4.6-8.731,10.28v20.56c0,5.68,3.909,10.28,8.731,10.28H464.6c4.822,0,8.731-4.6,8.731-10.28v-20.56C473.327,3130.24,469.418,3125.64,464.6,3125.64Zm0,30.84H438.4v-20.56H464.6v20.56Zm0,20.56H438.4c-4.822,0-8.731,4.6-8.731,10.28v20.56c0,5.68,3.909,10.28,8.731,10.28H464.6c4.822,0,8.731-4.6,8.731-10.28v-20.56C473.327,3181.64,469.418,3177.04,464.6,3177.04Zm0,30.84H438.4v-20.56H464.6v20.56Zm52.385-82.24H490.788c-4.822,0-8.73,4.6-8.73,10.28v71.96c0,5.68,3.908,10.28,8.73,10.28h26.193c4.822,0,8.73-4.6,8.73-10.28v-71.96C525.711,3130.24,521.8,3125.64,516.981,3125.64Zm0,82.24H490.788v-71.96h26.193v71.96Zm-104.77-30.84H386.019c-4.822,0-8.731,4.6-8.731,10.28v20.56c0,5.68,3.909,10.28,8.731,10.28h26.192c4.823,0,8.731-4.6,8.731-10.28v-20.56C420.942,3181.64,417.034,3177.04,412.211,3177.04Zm0,30.84H386.019v-20.56h26.192v20.56ZM386.019,3094.8c-2.411,0-4.365,2.3-4.365,5.14v10.28c0,2.84,1.954,5.14,4.365,5.14s4.366-2.3,4.366-5.14v-10.28C390.385,3097.1,388.43,3094.8,386.019,3094.8Zm21.827,0c-2.411,0-4.365,2.3-4.365,5.14v10.28c0,2.84,1.954,5.14,4.365,5.14s4.365-2.3,4.365-5.14v-10.28C412.211,3097.1,410.257,3094.8,407.846,3094.8Zm21.827,0c-2.411,0-4.365,2.3-4.365,5.14v10.28c0,2.84,1.954,5.14,4.365,5.14s4.365-2.3,4.365-5.14v-10.28C434.038,3097.1,432.084,3094.8,429.673,3094.8Zm21.827,0c-2.411,0-4.365,2.3-4.365,5.14v10.28c0,2.84,1.954,5.14,4.365,5.14s4.365-2.3,4.365-5.14v-10.28C455.865,3097.1,453.911,3094.8,451.5,3094.8Zm21.827,0c-2.411,0-4.366,2.3-4.366,5.14v10.28c0,2.84,1.955,5.14,4.366,5.14s4.365-2.3,4.365-5.14v-10.28C477.692,3097.1,475.738,3094.8,473.327,3094.8Zm21.827,0c-2.411,0-4.366,2.3-4.366,5.14v10.28c0,2.84,1.955,5.14,4.366,5.14s4.365-2.3,4.365-5.14v-10.28C499.519,3097.1,497.565,3094.8,495.154,3094.8Zm21.827,0c-2.411,0-4.366,2.3-4.366,5.14v10.28c0,2.84,1.955,5.14,4.366,5.14s4.365-2.3,4.365-5.14v-10.28C521.346,3097.1,519.391,3094.8,516.981,3094.8Zm-56.742-77.11a3.91,3.91,0,0,0-1.929.52l-8.731,5.14a5.559,5.559,0,0,0-2.145,6.82c1.006,2.58,3.6,3.71,5.789,2.52a2.684,2.684,0,0,0,.241-0.14l0.044-.05,2.357-1.39v22.57c0,2.84,1.955,5.14,4.366,5.14s4.365-2.3,4.365-5.14v-30.84C464.6,3020,462.65,3017.69,460.239,3017.69Zm56.75,0a3.91,3.91,0,0,0-1.929.52l-8.731,5.14a5.631,5.631,0,0,0-1.784,6.96c1.091,2.39,3.573,3.38,5.669,2.24l0.044-.05,2.357-1.39v22.57c0,2.84,1.955,5.14,4.366,5.14s4.365-2.3,4.365-5.14v-30.84C521.351,3020,519.4,3017.69,516.989,3017.69Zm-21.835,15.43h-4.366v-5.14c0-2.84-1.954-5.14-4.365-5.14s-4.365,2.3-4.365,5.14v5.14h-4.366c-2.411,0-4.365,2.3-4.365,5.14s1.954,5.14,4.365,5.14h4.366v5.14c0,2.84,1.954,5.14,4.365,5.14s4.365-2.3,4.365-5.14v-5.14h4.366c2.411,0,4.365-2.3,4.365-5.14S497.565,3033.12,495.154,3033.12Z" transform="translate(-338 -2992)"/>
</svg>
