<svg xmlns="http://www.w3.org/2000/svg" viewBox="0 0 241 228.5"><g fill="#D4E4F0"><path d="M109.4 58.1L93.9 38.7 78.4 58.1H12.5v73.6h19.4V98.8c0-11.8 9.5-21.3 21.3-21.3S74.5 87 74.5 98.8v32.9h100.7V58.1h-65.8zm46.4 46.5h-54.2v-31h54.2v31zm58.1 65.8V182H188l-10.6-7.1-32.6-11.6c-3.1-1.1-6.4-.9-9.4.6-2.9 1.5-5.1 4-6 7.2-1.7 5.5.8 11.4 5.8 14l8.4 4.5h-12.2l-5-12.5c-1.6-4.1-5.6-6.8-10-6.8-3.5 0-6.7 1.7-8.7 4.5-2 2.8-2.6 6.4-1.5 9.7l1.2 3.5-8.5-4.6c-2.7-1.5-5.9-1.8-8.9-.8-2.9 1-5.3 3.1-6.6 6-2.5 5.5-.2 11.9 5.2 14.6l19.1 9.4 39.7 8.1 51.5.1 15.1-3v10.8h27v-58.1h-27.1zm-100 9c1.3-1.8 4.4-1.4 5.3.6l3.9 9.7h-7l-2.6-7.6c-.4-.9-.2-1.9.4-2.7zm100 30.4L198 213h-49.6l-37.9-7.6-18.5-9.2c-1.6-.8-2.3-2.8-1.6-4.4.4-.9 1.1-1.5 2-1.8.9-.3 1.9-.2 2.7.2l13.3 7.3h36.8l15.3-7.6-21.6-11.5c-1.8-.9-2.6-3-2.1-4.9.3-1.1 1.1-2 2.1-2.5s2.2-.6 3.3-.2l31.3 11 12.2 8.1H214l-.1 19.9zm19.4 11h-11.6v-42.6h11.6v42.6zm0 0"/><path d="M186.8 127.8H78.4v-29c0-13.9-11.3-25.2-25.2-25.2C39.3 73.6 28 84.9 28 98.8v29H.9V151h185.9v-23.2zm-151-29c0-9.6 7.8-17.4 17.4-17.4 9.6 0 17.4 7.8 17.4 17.4v29H35.8v-29zm143.3 44.5H8.7v-7.7h170.4v7.7zM55.1 62h25.1l13.6-17 13.6 17h80.2L174.5 0H13.3L0 62h55.1zm56.1-7.8L93.9 32.5 76.5 54.2H63l30.9-40.1 30.9 40.1h-13.6zm67 0h-43.7L98.8 7.7h69.4l10 46.5zm-168.6 0l10-46.5H89L53.2 54.2H9.6zm0 0"/><path d="M97.7 108.4h62V69.7h-62v38.7zm7.8-15.4h19.4v7.7h-19.4V93zm27.1 7.7V93H152v7.7h-19.4zM152 85.2h-19.4v-7.7H152v7.7zm-27.1-7.7v7.7h-19.4v-7.7h19.4zm0 0"/></g></svg>