<?xml version="1.0" encoding="utf-8"?>
<!-- Generator: Adobe Illustrator 18.1.1, SVG Export Plug-In . SVG Version: 6.00 Build 0)  -->
<svg version="1.1" id="Layer_1" xmlns="http://www.w3.org/2000/svg" xmlns:xlink="http://www.w3.org/1999/xlink" x="0px" y="0px"
	 viewBox="0 0 241 228.5" enable-background="new 0 0 241 228.5" xml:space="preserve">
<g>
	<path fill="#D4E4F0" d="M109.4,58.1L93.9,38.7L78.4,58.1H12.5v73.6h19.4V98.8c0-11.8,9.5-21.3,21.3-21.3c11.8,0,21.3,9.5,21.3,21.3
		v32.9h100.7V58.1H109.4z M155.8,104.6h-54.2v-31h54.2V104.6z M155.8,104.6"/>
	<path fill="#D4E4F0" d="M213.9,170.4V182H188l-10.6-7.1l-32.6-11.6c-3.1-1.1-6.4-0.9-9.4,0.6c-2.9,1.5-5.1,4-6,7.2
		c-1.7,5.5,0.8,11.4,5.8,14l8.4,4.5l-12.2,0l-5-12.5c-1.6-4.1-5.6-6.8-10-6.8c-3.5,0-6.7,1.7-8.7,4.5c-2,2.8-2.6,6.4-1.5,9.7
		l1.2,3.5l-8.5-4.6c-2.7-1.5-5.9-1.8-8.9-0.8c-2.9,1-5.3,3.1-6.6,6c-2.5,5.5-0.2,11.9,5.2,14.6l19.1,9.4l39.7,8.1l51.5,0.1l15.1-3
		v10.8H241v-58.1H213.9z M113.9,179.4c1.3-1.8,4.4-1.4,5.3,0.6l3.9,9.7l-7,0l-2.6-7.6C113.1,181.2,113.3,180.2,113.9,179.4
		L113.9,179.4z M213.9,209.8l-15.9,3.2h-49.6l-37.9-7.6L92,196.2c-1.6-0.8-2.3-2.8-1.6-4.4c0.4-0.9,1.1-1.5,2-1.8
		c0.9-0.3,1.9-0.2,2.7,0.2l13.3,7.3h36.8l15.3-7.6l-21.6-11.5c-1.8-0.9-2.6-3-2.1-4.9c0.3-1.1,1.1-2,2.1-2.5c1-0.5,2.2-0.6,3.3-0.2
		l31.3,11l12.2,8.1h28.3L213.9,209.8L213.9,209.8z M233.3,220.8h-11.6v-42.6h11.6V220.8z M233.3,220.8"/>
	<path fill="#D4E4F0" d="M186.8,127.8H78.4v-29c0-13.9-11.3-25.2-25.2-25.2C39.3,73.6,28,84.9,28,98.8v29H0.9V151h185.9V127.8z
		 M35.8,98.8c0-9.6,7.8-17.4,17.4-17.4c9.6,0,17.4,7.8,17.4,17.4v29H35.8V98.8z M179.1,143.3H8.7v-7.7h170.4V143.3z M179.1,143.3"/>
	<path fill="#D4E4F0" d="M55.1,62h25.1l13.6-17l13.6,17h80.2L174.5,0H13.3L0,62H55.1z M111.2,54.2L93.9,32.5L76.5,54.2H63l30.9-40.1
		l30.9,40.1H111.2z M178.2,54.2h-43.7L98.8,7.7h69.4L178.2,54.2z M9.6,54.2l10-46.5H89L53.2,54.2H9.6z M9.6,54.2"/>
	<path fill="#D4E4F0" d="M97.7,108.4h62V69.7h-62V108.4z M105.5,93h19.4v7.7h-19.4V93z M132.6,100.7V93H152v7.7H132.6z M152,85.2
		h-19.4v-7.7H152V85.2z M124.9,77.5v7.7h-19.4v-7.7H124.9z M124.9,77.5"/>
</g>
</svg>
