<?xml version="1.0" encoding="utf-8"?>
<!-- Generator: Adobe Illustrator 18.1.1, SVG Export Plug-In . SVG Version: 6.00 Build 0)  -->
<svg version="1.1" id="Layer_1" xmlns="http://www.w3.org/2000/svg" xmlns:xlink="http://www.w3.org/1999/xlink" x="0px" y="0px"
	 viewBox="0 0 236.2 235.2" enable-background="new 0 0 236.2 235.2" xml:space="preserve">
<g>
	<path fill="#D4E4F0" d="M125.7,120.9h99c6.3,0,11.4-5.1,11.4-11.4c0-6.3-5.1-11.4-11.4-11.4H11.4c-2.1,0-3.8-1.7-3.8-3.8
		c0-2.1,1.7-3.8,3.8-3.8h99c6.3,0,11.4-5.1,11.4-11.4v-7.6h-7.6V79c0,2.1-1.7,3.8-3.8,3.8h-99C5.1,82.8,0,88,0,94.3
		c0,6.3,5.1,11.4,11.4,11.4h213.3c2.1,0,3.8,1.7,3.8,3.8c0,2.1-1.7,3.8-3.8,3.8h-99c-6.3,0-11.4,5.1-11.4,11.4v7.6H7.6v102.9h220.9
		V132.4H121.9v-7.6C121.9,122.6,123.6,120.9,125.7,120.9L125.7,120.9z M221,227.6H15.2V140H221V227.6z M221,227.6"/>
	<rect x="30.5" y="151.4" fill="#D4E4F0" width="15.2" height="7.6"/>
	<rect x="57.1" y="151.4" fill="#D4E4F0" width="15.2" height="7.6"/>
	<rect x="83.8" y="151.4" fill="#D4E4F0" width="15.2" height="7.6"/>
	<rect x="110.5" y="151.4" fill="#D4E4F0" width="15.2" height="7.6"/>
	<rect x="137.1" y="151.4" fill="#D4E4F0" width="15.2" height="7.6"/>
	<rect x="163.8" y="151.4" fill="#D4E4F0" width="15.2" height="7.6"/>
	<rect x="190.5" y="151.4" fill="#D4E4F0" width="15.2" height="7.6"/>
	<path fill="#D4E4F0" d="M137.1,75.2H99V53.3c-7.2-5.8-11.4-14.5-11.4-23.8C87.6,12.7,101.3-1,118.1-1c16.8,0,30.5,13.7,30.5,30.5
		c0,9.3-4.2,18-11.4,23.8L137.1,75.2z M137.1,75.2"/>
	<path fill="#D4E4F0" d="M141,56.2h-19.1V40.2c4.4-1.6,7.6-5.8,7.6-10.7c0-6.3-5.1-11.4-11.4-11.4c-6.3,0-11.4,5.1-11.4,11.4
		c0,5,3.2,9.1,7.6,10.7v15.9h-19v7.6H141V56.2z M118.1,25.7c2.1,0,3.8,1.7,3.8,3.8c0,2.1-1.7,3.8-3.8,3.8c-2.1,0-3.8-1.7-3.8-3.8
		C114.3,27.4,116,25.7,118.1,25.7L118.1,25.7z M118.1,25.7"/>
	<rect x="57.1" y="25.7" fill="#D4E4F0" width="19" height="7.6"/>
	<path fill="#D4E4F0" d="M60.3,49.3L77.9,42l2.9,7l-17.6,7.3L60.3,49.3z M60.3,49.3"/>
	<path fill="#D4E4F0" d="M155.4,49.1l2.9-7l17.6,7.3l-2.9,7L155.4,49.1z M155.4,49.1"/>
	<rect x="160" y="25.7" fill="#D4E4F0" width="19" height="7.6"/>
	<path fill="#D4E4F0" d="M155.4,10l17.6-7.3l2.9,7L158.3,17L155.4,10z M155.4,10"/>
	<path fill="#D4E4F0" d="M60.3,9.7l2.9-7L80.8,10l-2.9,7L60.3,9.7z M60.3,9.7"/>
	<rect x="30.5" y="170.5" fill="#D4E4F0" width="15.2" height="7.6"/>
	<rect x="57.1" y="170.5" fill="#D4E4F0" width="15.2" height="7.6"/>
	<rect x="83.8" y="170.5" fill="#D4E4F0" width="15.2" height="7.6"/>
	<rect x="110.5" y="170.5" fill="#D4E4F0" width="15.2" height="7.6"/>
	<rect x="137.1" y="170.5" fill="#D4E4F0" width="15.2" height="7.6"/>
	<rect x="163.8" y="170.5" fill="#D4E4F0" width="15.2" height="7.6"/>
	<rect x="190.5" y="170.5" fill="#D4E4F0" width="15.2" height="7.6"/>
	<rect x="30.5" y="189.5" fill="#D4E4F0" width="15.2" height="7.6"/>
	<rect x="57.1" y="189.5" fill="#D4E4F0" width="15.2" height="7.6"/>
	<rect x="83.8" y="189.5" fill="#D4E4F0" width="15.2" height="7.6"/>
	<rect x="110.5" y="189.5" fill="#D4E4F0" width="15.2" height="7.6"/>
	<rect x="137.1" y="189.5" fill="#D4E4F0" width="15.2" height="7.6"/>
	<rect x="163.8" y="189.5" fill="#D4E4F0" width="15.2" height="7.6"/>
	<rect x="190.5" y="189.5" fill="#D4E4F0" width="15.2" height="7.6"/>
	<rect x="30.5" y="208.6" fill="#D4E4F0" width="15.2" height="7.6"/>
	<rect x="57.1" y="208.6" fill="#D4E4F0" width="121.9" height="7.6"/>
	<rect x="190.5" y="208.6" fill="#D4E4F0" width="15.2" height="7.6"/>
</g>
</svg>
