<?xml version="1.0" encoding="utf-8"?>
<!-- Generator: Adobe Illustrator 18.1.1, SVG Export Plug-In . SVG Version: 6.00 Build 0)  -->
<svg version="1.1" id="Layer_1" xmlns="http://www.w3.org/2000/svg" xmlns:xlink="http://www.w3.org/1999/xlink" x="0px" y="0px"
	 viewBox="0 0 239.9 240.1" enable-background="new 0 0 239.9 240.1" xml:space="preserve">
<g>
	<path fill="#D4E4F0" d="M184.7,130.5l-5.5-5.5c2.8-2.8,2.8-7.3,0-10c-2.7-2.7-7.3-2.7-10,0l-5.5-5.5l3.9-3.9c2.8-2.8,2.8-7.3,0-10
		c-2.7-2.7-7.3-2.7-10,0l-3.9,3.9l-5.5-5.5l7.7-7.7c2.8-2.8,2.8-7.3,0-10c-2.8-2.8-7.3-2.8-10,0l-7.7,7.7l-5.5-5.5l3.9-3.9
		c1.3-1.3,2.1-3.1,2.1-5c0-1.9-0.7-3.7-2.1-5c-2.8-2.8-7.3-2.8-10,0l-3.9,3.9l-5.5-5.5l3.9-3.9c5.8-5.8,15.2-5.8,21,0
		c2.3,2.3,3.6,5.1,4.1,8.1c5.2-1.7,11.1-0.6,15.2,3.6c4.1,4.1,5.3,10.1,3.6,15.2c2.9,0.5,5.8,1.9,8.1,4.1c4.1,4.1,5.3,10.1,3.6,15.2
		c3,0.5,5.8,1.9,8.1,4.1C190.4,115.3,190.4,124.7,184.7,130.5L184.7,130.5z M184.7,130.5"/>
	<path fill="#D4E4F0" d="M125,175.4l-11.1,11.1l-27,11.6l-39.2,35.3l5.2,5.8L66,227.2c1.6,0.8,3.1,1.6,4.7,2.3l3.2-7.1
		c-0.6-0.3-1.1-0.6-1.7-0.8l18.9-17l27.2-11.7l12.1-12.1L125,175.4z M125,175.4"/>
	<path fill="#D4E4F0" d="M99.6,40.9L40.9,99.6l13.5,13.5l13.3-12.8l0,0c3.2-3.2,8.4-3.2,11.6,0c2.7,2.7,3.2,7.1,1,10.3l-11.4,17.1
		l71.4,71.4l58.7-58.7L99.6,40.9z M134,134.1c-7.8,7.8-20.4,7.8-28.2,0c-7.8-7.8-7.8-20.4,0-28.2c7.8-7.8,20.4-7.8,28.2,0
		C141.8,113.7,141.8,126.3,134,134.1L134,134.1z M134,134.1"/>
	<path fill="#D4E4F0" d="M120,143.8c-6.4,0-12.3-2.5-16.8-7s-7-10.5-7-16.8c0-6.4,2.5-12.3,7-16.8c4.5-4.5,10.5-7,16.8-7
		c6.4,0,12.3,2.5,16.8,7c4.5,4.5,7,10.5,7,16.8c0,6.4-2.5,12.3-7,16.8C132.3,141.3,126.3,143.8,120,143.8L120,143.8z M120,103.9
		c-4.3,0-8.3,1.7-11.4,4.7c-3,3-4.7,7.1-4.7,11.4c0,4.3,1.7,8.3,4.7,11.4c3,3,7.1,4.7,11.4,4.7c4.3,0,8.3-1.7,11.4-4.7
		c3-3,4.7-7.1,4.7-11.4c0-4.3-1.7-8.3-4.7-11.4C128.3,105.6,124.2,103.9,120,103.9L120,103.9z M120,103.9"/>
	<path fill="#D4E4F0" d="M62.5,137.2l6.4,4.3l17.8-26.6c4.2-6.3,3.4-14.7-2-20.1c-6.2-6.2-16.3-6.2-22.5,0l-23.3,23.3l-7.7,38.7
		l-12.2,12.2c-0.3-0.7-0.7-1.3-1-2l-7,3.2c0.7,1.5,1.5,3,2.3,4.5L1,187l5.5,5.5l31.8-31.8l7.7-38.7l21.6-21.6
		c3.2-3.2,8.4-3.2,11.6,0c2.7,2.7,3.2,7.1,1,10.3L62.5,137.2z M62.5,137.2"/>
	<path fill="#D4E4F0" d="M15.7,78.1l-7.2-2.9c-2,5-3.7,10.2-5,15.5l7.5,1.9C12.2,87.7,13.8,82.8,15.7,78.1L15.7,78.1z M15.7,78.1"/>
	<path fill="#D4E4F0" d="M30.8,51.7L24.6,47c-3.3,4.3-6.3,8.9-9,13.6l6.7,3.8C24.9,60,27.7,55.7,30.8,51.7L30.8,51.7z M30.8,51.7"/>
	<path fill="#D4E4F0" d="M1.4,139.2c0.9,5.3,2.1,10.7,3.7,15.9l7.4-2.3C11,148,9.9,143,9.1,138L1.4,139.2z M1.4,139.2"/>
	<path fill="#D4E4F0" d="M7.6,120c0-4.1,0.2-8.3,0.7-12.4l-7.7-0.8c-0.5,4.4-0.7,8.8-0.7,13.3c0,1,0,2,0,3l7.7-0.2
		C7.7,121.9,7.6,120.9,7.6,120L7.6,120z M7.6,120"/>
	<path fill="#D4E4F0" d="M219.8,53.3c-3-4.5-6.4-8.8-9.9-12.9l-5.8,5.1c3.4,3.8,6.5,7.9,9.3,12.1L219.8,53.3z M219.8,53.3"/>
	<path fill="#D4E4F0" d="M52.4,30.3l-4.7-6.2c-4.3,3.3-8.5,6.8-12.3,10.7l5.5,5.5C44.4,36.7,48.3,33.3,52.4,30.3L52.4,30.3z
		 M52.4,30.3"/>
	<path fill="#D4E4F0" d="M232.2,114.9l7.7-0.4c-0.2-5.4-0.9-10.9-1.8-16.2l-7.6,1.4C231.4,104.7,231.9,109.8,232.2,114.9
		L232.2,114.9z M232.2,114.9"/>
	<path fill="#D4E4F0" d="M234.1,82.5c-1.7-5.1-3.7-10.2-6.1-15.1l-7,3.4c2.2,4.6,4.1,9.3,5.7,14.1L234.1,82.5z M234.1,82.5"/>
	<path fill="#D4E4F0" d="M78.9,15.4L76,8.2c-5,2-10,4.3-14.7,7l3.8,6.8C69.5,19.5,74.2,17.3,78.9,15.4L78.9,15.4z M78.9,15.4"/>
	<path fill="#D4E4F0" d="M123.6,7.7c5.1,0.2,10.2,0.7,15.2,1.5l1.3-7.6c-5.3-0.9-10.8-1.4-16.2-1.6L123.6,7.7z M123.6,7.7"/>
	<path fill="#D4E4F0" d="M176.8,216.9l3.9,6.7c4.7-2.7,9.2-5.8,13.4-9.2l-4.8-6.1C185.4,211.4,181.2,214.3,176.8,216.9L176.8,216.9z
		 M176.8,216.9"/>
	<path fill="#D4E4F0" d="M181.1,25.7c4.2,2.8,8.3,5.8,12.2,9.1l5.1-5.9c-4.1-3.5-8.5-6.8-13-9.8L181.1,25.7z M181.1,25.7"/>
	<path fill="#D4E4F0" d="M153.6,12.8c4.8,1.5,9.6,3.4,14.2,5.5l3.3-7C166.2,9,161,7,155.9,5.4L153.6,12.8z M153.6,12.8"/>
	<path fill="#D4E4F0" d="M218.7,173.6l6.8,3.7c2.6-4.8,4.9-9.7,6.8-14.8l-7.2-2.7C223.3,164.4,221.1,169.1,218.7,173.6L218.7,173.6z
		 M218.7,173.6"/>
	<path fill="#D4E4F0" d="M229.4,145.1l7.5,1.7c1.2-5.3,2.1-10.7,2.5-16.1l-7.7-0.7C231.4,135.1,230.6,140.2,229.4,145.1L229.4,145.1
		z M229.4,145.1"/>
	<path fill="#D4E4F0" d="M200.7,198.1l5.6,5.4c3.8-3.9,7.3-8.1,10.5-12.4l-6.2-4.6C207.5,190.5,204.2,194.4,200.7,198.1L200.7,198.1
		z M200.7,198.1"/>
	<path fill="#D4E4F0" d="M148.8,228.6l2,7.5c5.2-1.4,10.4-3.2,15.4-5.2l-3-7.1C158.6,225.6,153.7,227.3,148.8,228.6L148.8,228.6z
		 M148.8,228.6"/>
	<path fill="#D4E4F0" d="M86.4,235.3c5.2,1.5,10.6,2.7,15.9,3.5l1.1-7.7c-5-0.7-10-1.8-14.9-3.2L86.4,235.3z M86.4,235.3"/>
	<path fill="#D4E4F0" d="M91.5,3.3l1.8,7.5c4.9-1.2,10-2.1,15-2.6l-0.8-7.7C102.2,1.1,96.8,2,91.5,3.3L91.5,3.3z M91.5,3.3"/>
	<path fill="#D4E4F0" d="M119.9,232.3l-1.3,0l-0.1,7.7l1.4,0c5,0,10-0.3,14.9-0.9l-1-7.7C129.3,232,124.6,232.3,119.9,232.3
		L119.9,232.3z M119.9,232.3"/>
</g>
</svg>
