<svg xmlns="http://www.w3.org/2000/svg" width="227" height="257"><defs><filter id="a" x="338" y="2992" width="227" height="257" filterUnits="userSpaceOnUse"><feFlood result="flood" flood-color="#d4e4f0"/><feComposite result="composite" operator="in" in2="SourceGraphic"/><feBlend result="blend" in2="SourceGraphic"/></filter></defs><path data-name="Forma 1" d="M556.269 3048.54H551.9v-41.12c0-8.52-5.863-15.42-13.1-15.42H364.192c-7.233 0-13.1 6.9-13.1 15.42v41.12h-4.365c-4.822 0-8.731 4.6-8.731 10.28v41.12c0 5.68 3.909 10.28 8.731 10.28h4.373v123.36c0 8.51 5.863 15.42 13.1 15.42h174.608c7.233 0 13.1-6.91 13.1-15.42v-123.36h4.365c4.822 0 8.731-4.6 8.731-10.28v-41.12c-.004-5.68-3.913-10.28-8.735-10.28zm-205.169 51.4h-4.365v-41.12h4.365v41.12zm192.077 133.64c0 2.84-1.955 5.14-4.365 5.14h-174.62c-2.41 0-4.365-2.3-4.365-5.14v-149.06h183.346v149.06zm0-159.34h-183.35v-66.82c0-2.84 1.955-5.14 4.365-5.14h174.616c2.41 0 4.365 2.3 4.365 5.14v66.82zm13.1 25.7H551.9v-41.12h4.365v41.12zm-144.058 25.7h-26.2c-4.822 0-8.731 4.6-8.731 10.28v20.56c0 5.68 3.909 10.28 8.731 10.28h26.192c4.823 0 8.731-4.6 8.731-10.28v-20.56c0-5.68-3.908-10.28-8.731-10.28zm0 30.84h-26.2v-20.56h26.192v20.56zm52.385-30.84H438.4c-4.822 0-8.731 4.6-8.731 10.28v20.56c0 5.68 3.909 10.28 8.731 10.28h26.2c4.822 0 8.731-4.6 8.731-10.28v-20.56c-.004-5.68-3.913-10.28-8.731-10.28zm0 30.84H438.4v-20.56h26.2v20.56zm0 20.56H438.4c-4.822 0-8.731 4.6-8.731 10.28v20.56c0 5.68 3.909 10.28 8.731 10.28h26.2c4.822 0 8.731-4.6 8.731-10.28v-20.56c-.004-5.68-3.913-10.28-8.731-10.28zm0 30.84H438.4v-20.56h26.2v20.56zm52.385-82.24h-26.201c-4.822 0-8.73 4.6-8.73 10.28v71.96c0 5.68 3.908 10.28 8.73 10.28h26.193c4.822 0 8.73-4.6 8.73-10.28v-71.96c0-5.68-3.911-10.28-8.73-10.28zm0 82.24h-26.201v-71.96h26.193v71.96zm-104.77-30.84h-26.2c-4.822 0-8.731 4.6-8.731 10.28v20.56c0 5.68 3.909 10.28 8.731 10.28h26.192c4.823 0 8.731-4.6 8.731-10.28v-20.56c0-5.68-3.908-10.28-8.731-10.28zm0 30.84h-26.2v-20.56h26.192v20.56zm-26.2-113.08c-2.411 0-4.365 2.3-4.365 5.14v10.28c0 2.84 1.954 5.14 4.365 5.14s4.366-2.3 4.366-5.14v-10.28c0-2.84-1.955-5.14-4.366-5.14zm21.827 0c-2.411 0-4.365 2.3-4.365 5.14v10.28c0 2.84 1.954 5.14 4.365 5.14s4.365-2.3 4.365-5.14v-10.28c0-2.84-1.954-5.14-4.365-5.14zm21.827 0c-2.411 0-4.365 2.3-4.365 5.14v10.28c0 2.84 1.954 5.14 4.365 5.14s4.365-2.3 4.365-5.14v-10.28c0-2.84-1.954-5.14-4.365-5.14zm21.827 0c-2.411 0-4.365 2.3-4.365 5.14v10.28c0 2.84 1.954 5.14 4.365 5.14s4.365-2.3 4.365-5.14v-10.28c0-2.84-1.954-5.14-4.365-5.14zm21.827 0c-2.411 0-4.366 2.3-4.366 5.14v10.28c0 2.84 1.955 5.14 4.366 5.14s4.365-2.3 4.365-5.14v-10.28c0-2.84-1.954-5.14-4.365-5.14zm21.827 0c-2.411 0-4.366 2.3-4.366 5.14v10.28c0 2.84 1.955 5.14 4.366 5.14s4.365-2.3 4.365-5.14v-10.28c0-2.84-1.954-5.14-4.365-5.14zm21.827 0c-2.411 0-4.366 2.3-4.366 5.14v10.28c0 2.84 1.955 5.14 4.366 5.14s4.365-2.3 4.365-5.14v-10.28c0-2.84-1.955-5.14-4.365-5.14zm-56.742-77.11a3.91 3.91 0 0 0-1.929.52l-8.731 5.14a5.559 5.559 0 0 0-2.145 6.82c1.006 2.58 3.6 3.71 5.789 2.52a2.684 2.684 0 0 0 .241-.14l.044-.05 2.357-1.39v22.57c0 2.84 1.955 5.14 4.366 5.14s4.365-2.3 4.365-5.14v-30.84c.004-2.84-1.946-5.15-4.357-5.15zm56.75 0a3.91 3.91 0 0 0-1.929.52l-8.731 5.14a5.631 5.631 0 0 0-1.784 6.96c1.091 2.39 3.573 3.38 5.669 2.24l.044-.05 2.357-1.39v22.57c0 2.84 1.955 5.14 4.366 5.14s4.365-2.3 4.365-5.14v-30.84c.005-2.84-1.946-5.15-4.357-5.15zm-21.835 15.43h-4.366v-5.14c0-2.84-1.954-5.14-4.365-5.14s-4.365 2.3-4.365 5.14v5.14h-4.366c-2.411 0-4.365 2.3-4.365 5.14s1.954 5.14 4.365 5.14h4.366v5.14c0 2.84 1.954 5.14 4.365 5.14s4.365-2.3 4.365-5.14v-5.14h4.366c2.411 0 4.365-2.3 4.365-5.14s-1.954-5.14-4.365-5.14z" transform="translate(-338 -2992)" fill-rule="evenodd" filter="url(#a)"/></svg>