<?xml version="1.0" encoding="utf-8"?>
<!-- Generator: Adobe Illustrator 18.1.1, SVG Export Plug-In . SVG Version: 6.00 Build 0)  -->
<svg version="1.1" id="Layer_1" xmlns="http://www.w3.org/2000/svg" xmlns:xlink="http://www.w3.org/1999/xlink" x="0px" y="0px"
	 viewBox="0 0 216.9 236.3" enable-background="new 0 0 216.9 236.3" xml:space="preserve">
<g>
	<path fill="#D4E4F0" d="M120.1,124c-19.2,0-34.9-15.6-34.9-34.9c0-19.2,15.6-34.9,34.9-34.9c19.2,0,34.9,15.6,34.9,34.9
		C154.9,108.4,139.3,124,120.1,124L120.1,124z M120.1,124"/>
	<path fill="#D4E4F0" d="M50.3,197.5c-6.4,0-11.6,5.2-11.6,11.6s5.2,11.6,11.6,11.6c6.4,0,11.6-5.2,11.6-11.6S56.8,197.5,50.3,197.5
		L50.3,197.5z M50.3,213c-2.1,0-3.9-1.7-3.9-3.9c0-2.1,1.7-3.9,3.9-3.9c2.1,0,3.9,1.7,3.9,3.9C54.2,211.3,52.5,213,50.3,213
		L50.3,213z M50.3,213"/>
	<path fill="#D4E4F0" d="M166.5,197.5c-6.4,0-11.6,5.2-11.6,11.6s5.2,11.6,11.6,11.6s11.6-5.2,11.6-11.6S172.9,197.5,166.5,197.5
		L166.5,197.5z M166.5,213c-2.1,0-3.9-1.7-3.9-3.9c0-2.1,1.7-3.9,3.9-3.9s3.9,1.7,3.9,3.9C170.4,211.3,168.7,213,166.5,213
		L166.5,213z M166.5,213"/>
	<path fill="#D4E4F0" d="M196.9,159c-1.5-4.6-5.9-8-11-8h-12.3c-7.4,0-14.7,2.8-20.2,7.7h-21.7v-5.6c0-7.6-6.2-13.8-13.8-13.8
		c-4.8,0-9.3,2.6-11.8,6.7l-7.6,12.7h-9.6c-1.2,0-2.3-0.6-3-1.6c-0.7-1-0.8-2.3-0.3-3.4l7.8-17.5c2.5-5.7,0-12.5-5.7-15.1
		c-4.8-2.2-10.4-0.9-13.7,3.2L52,151.6L18.2,162C7.3,165.3,0,175.2,0,186.6v13.7c0,7,5.7,12.7,12.7,12.7h10.8
		c1.9,13.1,13.2,23.2,26.8,23.2c13.6,0,24.9-10.1,26.8-23.2h62.6c1.9,13.1,13.2,23.2,26.8,23.2c13.6,0,24.9-10.1,26.8-23.2h0.3
		c12.8,0,23.2-10.4,23.2-23.2V182C216.9,170.3,208.2,160.6,196.9,159L196.9,159z M112.8,150.1c1.1-1.8,3.1-2.9,5.2-2.9
		c3.3,0,6,2.7,6,6v5.6h-16.4L112.8,150.1z M50.3,228.5c-10.7,0-19.4-8.7-19.4-19.4c0-10.7,8.7-19.4,19.4-19.4
		c10.7,0,19.4,8.7,19.4,19.4C69.7,219.8,61,228.5,50.3,228.5L50.3,228.5z M166.5,228.5c-10.7,0-19.4-8.7-19.4-19.4
		c0-10.7,8.7-19.4,19.4-19.4c10.7,0,19.4,8.7,19.4,19.4C185.9,219.8,177.2,228.5,166.5,228.5L166.5,228.5z M209.1,189.8
		c0,8.5-6.9,15.5-15.5,15.5h-0.3c-1.9-13.1-13.2-23.2-26.8-23.2c-13.6,0-24.9,10.1-26.8,23.2H77.2C75.3,192.2,64,182,50.3,182
		c-13.6,0-24.9,10.1-26.8,23.2H12.7c-2.7,0-5-2.2-5-5v-6.6h9.7c5.3,0,9.7-4.3,9.7-9.7c0-5.3-4.3-9.7-9.7-9.7h-1.9v7.7h1.9
		c1.1,0,1.9,0.9,1.9,1.9c0,1.1-0.9,1.9-1.9,1.9H7.8c0.3-7.7,5.3-14.3,12.6-16.5l36-11.1l23.5-29c1.1-1.3,2.9-1.8,4.5-1.1
		c1.9,0.9,2.7,3.1,1.9,4.9l-7.8,17.5c-1.6,3.5-1.2,7.5,0.9,10.8c2.1,3.2,5.6,5.1,9.5,5.1h67.6l1.1-1.1c4.2-4.2,10-6.6,16-6.6h12.3
		c2.1,0,3.9,1.7,3.9,3.9v3.9h3.9c8.5,0,15.5,6.9,15.5,15.5V189.8z M209.1,189.8"/>
	<rect x="116.2" y="19.4" fill="#D4E4F0" width="7.7" height="27.1"/>
	<rect x="116.2" y="3.9" fill="#D4E4F0" width="7.7" height="7.7"/>
	<rect x="139.4" y="15.5" fill="#D4E4F0" width="7.7" height="38.7"/>
	<rect x="139.4" y="0" fill="#D4E4F0" width="7.7" height="7.7"/>
	<rect x="93" y="27.1" fill="#D4E4F0" width="7.7" height="27.1"/>
	<rect x="93" y="11.7" fill="#D4E4F0" width="7.7" height="7.8"/>
	<path id="fa-rouble" fill="#FFFFFF" d="M125.7,86.9h-9.3V73.8h9.3c1.8-0.1,3.6,0.6,5,1.8c2.5,2.7,2.5,6.8,0,9.5
		C129.3,86.4,127.5,87,125.7,86.9L125.7,86.9L125.7,86.9z M126.3,67.5h-15.6c-0.5,0-0.9,0.3-0.9,0.8c0,0,0,0.1,0,0.1v18.5h-6.5
		c-0.3,0-0.5,0.1-0.7,0.3c-0.2,0.2-0.3,0.4-0.3,0.7v4.4c0,0.2,0.1,0.5,0.3,0.7c0.2,0.2,0.4,0.3,0.7,0.3h6.5v3.5h-6.5
		c-0.2,0-0.5,0.1-0.7,0.3c-0.2,0.2-0.3,0.4-0.3,0.7v3.8c0,0.2,0.1,0.5,0.3,0.7c0.2,0.2,0.4,0.3,0.7,0.3h6.5v5.6
		c0,0.2,0.1,0.5,0.3,0.7c0.2,0.2,0.4,0.3,0.7,0.3h4.8c0.2,0,0.5-0.1,0.7-0.3c0.2-0.2,0.3-0.4,0.3-0.7v-5.6h14.7
		c0.3,0,0.5-0.1,0.7-0.3c0.2-0.2,0.3-0.4,0.3-0.7v-3.8c0-0.3-0.1-0.5-0.3-0.7c-0.2-0.2-0.4-0.3-0.7-0.3h-14.7v-3.5h9.9
		c3.5,0.1,6.9-1.2,9.5-3.6c4.9-5.2,4.9-13.3,0-18.5C133.2,68.7,129.8,67.4,126.3,67.5L126.3,67.5L126.3,67.5z"/>
</g>
</svg>
