<svg xmlns="http://www.w3.org/2000/svg" viewBox="0 0 216.9 236.3"><path fill="#D4E4F0" d="M120.1 124c-19.2 0-34.9-15.6-34.9-34.9 0-19.2 15.6-34.9 34.9-34.9 19.2 0 34.9 15.6 34.9 34.9-.1 19.3-15.7 34.9-34.9 34.9zm-69.8 73.5c-6.4 0-11.6 5.2-11.6 11.6s5.2 11.6 11.6 11.6c6.4 0 11.6-5.2 11.6-11.6s-5.1-11.6-11.6-11.6zm0 15.5c-2.1 0-3.9-1.7-3.9-3.9 0-2.1 1.7-3.9 3.9-3.9 2.1 0 3.9 1.7 3.9 3.9s-1.7 3.9-3.9 3.9zm116.2-15.5c-6.4 0-11.6 5.2-11.6 11.6s5.2 11.6 11.6 11.6 11.6-5.2 11.6-11.6-5.2-11.6-11.6-11.6zm0 15.5c-2.1 0-3.9-1.7-3.9-3.9 0-2.1 1.7-3.9 3.9-3.9s3.9 1.7 3.9 3.9-1.7 3.9-3.9 3.9zm0 0"/><path fill="#D4E4F0" d="M196.9 159c-1.5-4.6-5.9-8-11-8h-12.3c-7.4 0-14.7 2.8-20.2 7.7h-21.7v-5.6c0-7.6-6.2-13.8-13.8-13.8-4.8 0-9.3 2.6-11.8 6.7l-7.6 12.7h-9.6c-1.2 0-2.3-.6-3-1.6-.7-1-.8-2.3-.3-3.4l7.8-17.5c2.5-5.7 0-12.5-5.7-15.1-4.8-2.2-10.4-.9-13.7 3.2l-22 27.3L18.2 162C7.3 165.3 0 175.2 0 186.6v13.7c0 7 5.7 12.7 12.7 12.7h10.8c1.9 13.1 13.2 23.2 26.8 23.2 13.6 0 24.9-10.1 26.8-23.2h62.6c1.9 13.1 13.2 23.2 26.8 23.2 13.6 0 24.9-10.1 26.8-23.2h.3c12.8 0 23.2-10.4 23.2-23.2V182c.1-11.7-8.6-21.4-19.9-23zm-84.1-8.9c1.1-1.8 3.1-2.9 5.2-2.9 3.3 0 6 2.7 6 6v5.6h-16.4l5.2-8.7zm-62.5 78.4c-10.7 0-19.4-8.7-19.4-19.4s8.7-19.4 19.4-19.4 19.4 8.7 19.4 19.4-8.7 19.4-19.4 19.4zm116.2 0c-10.7 0-19.4-8.7-19.4-19.4s8.7-19.4 19.4-19.4 19.4 8.7 19.4 19.4-8.7 19.4-19.4 19.4zm42.6-38.7c0 8.5-6.9 15.5-15.5 15.5h-.3c-1.9-13.1-13.2-23.2-26.8-23.2-13.6 0-24.9 10.1-26.8 23.2H77.2C75.3 192.2 64 182 50.3 182c-13.6 0-24.9 10.1-26.8 23.2H12.7c-2.7 0-5-2.2-5-5v-6.6h9.7c5.3 0 9.7-4.3 9.7-9.7 0-5.3-4.3-9.7-9.7-9.7h-1.9v7.7h1.9c1.1 0 1.9.9 1.9 1.9 0 1.1-.9 1.9-1.9 1.9H7.8c.3-7.7 5.3-14.3 12.6-16.5l36-11.1 23.5-29c1.1-1.3 2.9-1.8 4.5-1.1 1.9.9 2.7 3.1 1.9 4.9l-7.8 17.5c-1.6 3.5-1.2 7.5.9 10.8 2.1 3.2 5.6 5.1 9.5 5.1h67.6l1.1-1.1c4.2-4.2 10-6.6 16-6.6h12.3c2.1 0 3.9 1.7 3.9 3.9v3.9h3.9c8.5 0 15.5 6.9 15.5 15.5v7.9zM116.2 19.4h7.7v27.1h-7.7zm0-15.5h7.7v7.7h-7.7zm23.2 11.6h7.7v38.7h-7.7zm0-15.5h7.7v7.7h-7.7zM93 27.1h7.7v27.1H93zm0-15.4h7.7v7.8H93z"/><path fill="#FFF" d="M125.7 86.9h-9.3V73.8h9.3c1.8-.1 3.6.6 5 1.8 2.5 2.7 2.5 6.8 0 9.5-1.4 1.3-3.2 1.9-5 1.8zm.6-19.4h-15.6c-.5 0-.9.3-.9.8v18.6h-6.5c-.3 0-.5.1-.7.3-.2.2-.3.4-.3.7v4.4c0 .2.1.5.3.7.2.2.4.3.7.3h6.5v3.5h-6.5c-.2 0-.5.1-.7.3-.2.2-.3.4-.3.7v3.8c0 .2.1.5.3.7.2.2.4.3.7.3h6.5v5.6c0 .2.1.5.3.7.2.2.4.3.7.3h4.8c.2 0 .5-.1.7-.3.2-.2.3-.4.3-.7v-5.6h14.7c.3 0 .5-.1.7-.3.2-.2.3-.4.3-.7v-3.8c0-.3-.1-.5-.3-.7-.2-.2-.4-.3-.7-.3h-14.7v-3.5h9.9c3.5.1 6.9-1.2 9.5-3.6 4.9-5.2 4.9-13.3 0-18.5-2.8-2.5-6.2-3.8-9.7-3.7z"/></svg>