<svg xmlns="http://www.w3.org/2000/svg" width="283" height="283"><defs><filter id="a" x="1310" y="4265" width="283" height="283" filterUnits="userSpaceOnUse"><feFlood result="flood" flood-color="#d4e4f0"/><feComposite result="composite" operator="in" in2="SourceGraphic"/><feBlend result="blend" in2="SourceGraphic"/></filter></defs><path d="M1516.58 4408.12l62.6-62.61a47.164 47.164 0 0 0-66.7-66.7l-62.6 62.61-70.43-70.42a9.44 9.44 0 0 0-13.34 0l-53.36 53.36a9.44 9.44 0 0 0 0 13.34l70.42 70.42-51.55 51.55a9.432 9.432 0 0 0-2.49 4.42l-17.35 70.7a9.411 9.411 0 0 0 11.41 11.41l70.71-17.34a9.432 9.432 0 0 0 4.42-2.49l51.55-51.55 70.43 70.41a9.415 9.415 0 0 0 13.34 0l53.36-53.35a9.44 9.44 0 0 0 0-13.34zm9.24-115.97a28.3 28.3 0 1 1 40.02 40.02l-5.56 5.56-40.02-40.01zm-193.06 38.88l40.02-40.02 38.55 38.54-10.58 10.58a9.433 9.433 0 0 0 13.34 13.34l10.58-10.57 11.86 11.86-40.02 40.02zm70.42 83.76h.01l53.36-53.36 50.37-50.37 13.34 13.34-155.29 155.28-13.34-13.34zm-69.36 109.38l9.64-39.32 29.68 29.68zm57.83-17.81l-13.34-13.34 155.29-155.28 13.34 13.33zm135.32 18.86l-63.75-63.74 16.1-16.11 23.91-23.91 11.87 11.86-10.58 10.58a9.433 9.433 0 0 0 13.34 13.34l10.58-10.58 38.54 38.55z" transform="translate(-1310 -4265)" fill-rule="evenodd" filter="url(#a)"/></svg>