<svg xmlns="http://www.w3.org/2000/svg" width="311.843" height="268.25"><defs><filter id="a" x="308.938" y="3698.28" width="311.843" height="268.25" filterUnits="userSpaceOnUse"><feFlood result="flood" flood-color="#d4e4f0"/><feComposite result="composite" operator="in" in2="SourceGraphic"/><feBlend result="blend" in2="SourceGraphic"/></filter></defs><path d="M425.851 3759.67a120.081 120.081 0 0 1 42.451 1.95 6.718 6.718 0 0 1 4.974 7.98 6.543 6.543 0 0 1-6.343 5.28 5.977 5.977 0 0 1-1.383-.15 107.149 107.149 0 0 0-37.934-1.77 6.536 6.536 0 0 1-7.32-5.73 6.682 6.682 0 0 1 5.555-7.56zM378.5 3794.4a6.825 6.825 0 0 1 2.573 9.11c-.513.96-1 1.94-1.45 2.91a6.481 6.481 0 0 1-5.861 3.8 6.3 6.3 0 0 1-2.808-.66 6.8 6.8 0 0 1-3.044-8.95 72.404 72.404 0 0 1 1.771-3.55 6.392 6.392 0 0 1 8.819-2.66zm-9.624 22.23a6.68 6.68 0 0 1 5.548 7.56 61.1 61.1 0 0 0 11.705 45.06 6.854 6.854 0 0 1-1.157 9.41 6.364 6.364 0 0 1-9.114-1.2 74.707 74.707 0 0 1-14.307-55.1 6.545 6.545 0 0 1 7.325-5.73zm-40.56-4.36a18.562 18.562 0 0 1 7.863 1.74c3.511-21.37 13.3-39.7 28.835-53.68 15.277-13.76 35.315-22.85 58.4-26.58a27.421 27.421 0 0 1-1.394-8.64c0-14.79 11.656-26.82 25.986-26.82S474 3710.32 474 3725.11a27.509 27.509 0 0 1-1.461 8.86 146.7 146.7 0 0 1 31.349 8.79l32.915-29.42a6.345 6.345 0 0 1 6.652-1.16 6.69 6.69 0 0 1 4.065 5.56l4.357 44.65c18.807 10.99 30.745 26.92 36.44 48.58 3.252 12.37 5.319 13.09 11.984 13.67 10.236.89 15.192 5.43 17.549 9.08 3.413 5.28 3.86 12.09 1.328 20.21l-7.547 24.22c-3.547 11.38-10.12 13.77-15.01 13.77H589.4c-16.792 22.56-32.375 27.93-52.663 33.15.654 8.61 1.793 18.83 2.9 28.03l16.594.01a6.708 6.708 0 0 1 0 13.41l-22.325-.01H487a6.708 6.708 0 0 1 0-13.41h2.481l-4.023-14.13c-15.588 2.49-31.651 1.34-51.616-3.7q-.12 1.08-.246 2.19a165.507 165.507 0 0 0-1.483 22.18 6.8 6.8 0 0 1-1.846 4.84 6.378 6.378 0 0 1-4.648 2.03l-37.864-.01h-22.323a6.708 6.708 0 0 1 0-13.41h14.222c-5.832-24.34-16.746-48.9-24.532-59.27a101.581 101.581 0 0 1-20.4-61.43 6.407 6.407 0 1 0-12.8 0 6.905 6.905 0 0 0 1.891 4.75 6.867 6.867 0 0 1-.034 9.49 6.364 6.364 0 0 1-9.188-.04 20.372 20.372 0 0 1-5.664-14.2c-.004-11.1 8.695-20.12 19.389-20.12zm119.69-100.57a13.417 13.417 0 1 0 13 13.41 13.223 13.223 0 0 0-13-13.41zm-82.614 173.9c10.372 13.82 22.039 42.56 27.615 67.49l26.185.01c.239-6.06.9-11.89 1.5-17.2.389-3.43.756-6.67.965-9.6a6.736 6.736 0 0 1 2.739-4.98 6.331 6.331 0 0 1 5.471-.98c24.027 6.86 41.617 8.17 58.82 4.39a6.479 6.479 0 0 1 7.589 4.67l6.751 23.7h23.51c-1.32-11.09-2.647-23.41-3.143-32.84a6.687 6.687 0 0 1 4.947-6.88c22.66-5.7 36.338-9.14 52.544-32.11a6.444 6.444 0 0 1 5.252-2.76h10.476c.923 0 2-2.41 2.642-4.46l7.546-24.22c1.224-3.93 1.306-7.01.23-8.68s-3.868-2.8-7.826-3.14c-14.843-1.3-19.687-9.27-23.435-23.53-6.659-25.33-22.026-36.06-33.006-41.93a6.716 6.716 0 0 1-3.478-5.29l-3.447-35.32-26.473 23.66a6.332 6.332 0 0 1-6.805 1.1 136.879 136.879 0 0 0-38.62-10.42 25.293 25.293 0 0 1-32.051-.15c-41.214 4.65-84.185 29.56-84.18 86.26a87.96 87.96 0 0 0 17.682 53.21zm177.758-80.06a6.708 6.708 0 1 1-6.5 6.7 6.615 6.615 0 0 1 6.5-6.7zm-96.166 147.56h6.063a6.708 6.708 0 0 1 0 13.41h-6.063a6.708 6.708 0 0 1 0-13.41z" transform="translate(-308.938 -3698.28)" fill-rule="evenodd" filter="url(#a)"/></svg>