<svg xmlns="http://www.w3.org/2000/svg" viewBox="0 0 236.2 235.2"><g fill="#D4E4F0"><path d="M125.7 120.9h99c6.3 0 11.4-5.1 11.4-11.4 0-6.3-5.1-11.4-11.4-11.4H11.4c-2.1 0-3.8-1.7-3.8-3.8 0-2.1 1.7-3.8 3.8-3.8h99c6.3 0 11.4-5.1 11.4-11.4v-7.6h-7.6V79c0 2.1-1.7 3.8-3.8 3.8h-99C5.1 82.8 0 88 0 94.3s5.1 11.4 11.4 11.4h213.3c2.1 0 3.8 1.7 3.8 3.8 0 2.1-1.7 3.8-3.8 3.8h-99c-6.3 0-11.4 5.1-11.4 11.4v7.6H7.6v102.9h220.9V132.4H121.9v-7.6c0-2.2 1.7-3.9 3.8-3.9zM221 227.6H15.2V140H221v87.6zm0 0"/><path d="M30.5 151.4h15.2v7.6H30.5zm26.6 0h15.2v7.6H57.1zm26.7 0H99v7.6H83.8zm26.7 0h15.2v7.6h-15.2zm26.6 0h15.2v7.6h-15.2zm26.7 0H179v7.6h-15.2zm26.7 0h15.2v7.6h-15.2zm-53.4-76.2H99V53.3c-7.2-5.8-11.4-14.5-11.4-23.8C87.6 12.7 101.3-1 118.1-1s30.5 13.7 30.5 30.5c0 9.3-4.2 18-11.4 23.8l-.1 21.9zm0 0"/><path d="M141 56.2h-19.1v-16c4.4-1.6 7.6-5.8 7.6-10.7 0-6.3-5.1-11.4-11.4-11.4-6.3 0-11.4 5.1-11.4 11.4 0 5 3.2 9.1 7.6 10.7v15.9h-19v7.6H141v-7.5zm-22.9-30.5c2.1 0 3.8 1.7 3.8 3.8 0 2.1-1.7 3.8-3.8 3.8-2.1 0-3.8-1.7-3.8-3.8 0-2.1 1.7-3.8 3.8-3.8zm-61 0h19v7.6h-19zm3.2 23.6L77.9 42l2.9 7-17.6 7.3-2.9-7zm95.1-.2l2.9-7 17.6 7.3-2.9 7-17.6-7.3zm4.6-23.4h19v7.6h-19zM155.4 10L173 2.7l2.9 7-17.6 7.3-2.9-7zm-95.1-.3l2.9-7L80.8 10l-2.9 7-17.6-7.3zM30.5 170.5h15.2v7.6H30.5zm26.6 0h15.2v7.6H57.1zm26.7 0H99v7.6H83.8zm26.7 0h15.2v7.6h-15.2zm26.6 0h15.2v7.6h-15.2zm26.7 0H179v7.6h-15.2zm26.7 0h15.2v7.6h-15.2zm-160 19h15.2v7.6H30.5zm26.6 0h15.2v7.6H57.1zm26.7 0H99v7.6H83.8zm26.7 0h15.2v7.6h-15.2zm26.6 0h15.2v7.6h-15.2zm26.7 0H179v7.6h-15.2zm26.7 0h15.2v7.6h-15.2zm-160 19.1h15.2v7.6H30.5zm26.6 0H179v7.6H57.1zm133.4 0h15.2v7.6h-15.2z"/></g></svg>