<svg xmlns="http://www.w3.org/2000/svg" width="13.06" height="8"><defs><filter id="a" x="2468.97" y="8934.97" width="13.06" height="8" filterUnits="userSpaceOnUse"><feFlood result="flood" flood-color="#e3e3e3"/><feComposite result="composite" operator="in" in2="SourceGraphic"/><feBlend result="blend" in2="SourceGraphic"/></filter></defs><path d="M2481.89 8935.81l-.65-.69a.422.422 0 0 0-.3-.14.389.389 0 0 0-.3.14l-5.14 5.39-5.14-5.39a.4.4 0 0 0-.61 0l-.65.69a.416.416 0 0 0-.13.31.438.438 0 0 0 .13.32l6.09 6.39a.4.4 0 0 0 .61 0l6.09-6.39a.438.438 0 0 0 .13-.32.416.416 0 0 0-.13-.31z" transform="translate(-2468.97 -8934.97)" fill-rule="evenodd" filter="url(#a)"/></svg>