<svg xmlns="http://www.w3.org/2000/svg" width="9.44" height="9.4"><defs><filter id="a" x="2278" y="10758.1" width="9.44" height="9.4" filterUnits="userSpaceOnUse"><feFlood result="flood" flood-color="#fff"/><feComposite result="composite" operator="in" in2="SourceGraphic"/><feBlend result="blend" in2="SourceGraphic"/></filter></defs><path d="M2287.41 10765.4a1.351 1.351 0 0 0-.51-.4.949.949 0 0 1-.36-.2c-.16-.1-.3-.1-.43-.2a.658.658 0 0 0-.36-.2.269.269 0 0 0-.16-.1.613.613 0 0 0-.24-.2h-.19a.358.358 0 0 0-.34.2 1.319 1.319 0 0 0-.37.4c-.11.1-.22.3-.35.4a.717.717 0 0 1-.31.2.153.153 0 0 1-.15-.1h-.14a.44.44 0 0 0-.16-.1.165.165 0 0 0-.12-.1 6.708 6.708 0 0 1-1.58-1.1 9.919 9.919 0 0 1-1.16-1.6.177.177 0 0 0-.08-.1c-.05-.1-.08-.2-.09-.2s-.04-.1-.06-.1c-.02-.1-.03-.2-.03-.2a.4.4 0 0 1 .19-.3 2.139 2.139 0 0 0 .41-.4q.225-.15.42-.3a.954.954 0 0 0 .19-.4s-.02-.1-.05-.2a.557.557 0 0 1-.14-.2.359.359 0 0 1-.12-.2l-.21-.3c-.07-.1-.15-.3-.23-.4-.09-.2-.15-.3-.2-.4a1.03 1.03 0 0 0-.36-.5h-.61a2.6 2.6 0 0 0-.46.2 1.541 1.541 0 0 0-.71.8 2.382 2.382 0 0 0-.34 1.2 3.448 3.448 0 0 0 .02.4c.02.1.05.2.09.4a1.71 1.71 0 0 1 .09.3c.03.1.07.2.14.4a1.744 1.744 0 0 1 .12.3 10.759 10.759 0 0 0 .56 1.2 12.311 12.311 0 0 0 1.44 1.7 14.146 14.146 0 0 0 1.77 1.5 4.395 4.395 0 0 0 1.17.5 3.408 3.408 0 0 1 .33.2 1.638 1.638 0 0 1 .37.1.494.494 0 0 1 .32.1c.14 0 .27.1.39.1h.35a2.858 2.858 0 0 0 1.24-.3 1.74 1.74 0 0 0 .82-.8 1.381 1.381 0 0 0 .14-.4 2.331 2.331 0 0 0 .07-.5.355.355 0 0 0-.02-.1z" transform="translate(-2278 -10758.1)" fill-rule="evenodd" filter="url(#a)"/></svg>