<svg xmlns="http://www.w3.org/2000/svg" width="12.69" height="7.46" viewBox="0 0 12.69 7.46">
  <metadata><?xpacket begin="﻿" id="W5M0MpCehiHzreSzNTczkc9d"?>
<x:xmpmeta xmlns:x="adobe:ns:meta/" x:xmptk="Adobe XMP Core 5.6-c142 79.160924, 2017/07/13-01:06:39        ">
   <rdf:RDF xmlns:rdf="http://www.w3.org/1999/02/22-rdf-syntax-ns#">
      <rdf:Description rdf:about=""/>
   </rdf:RDF>
</x:xmpmeta>
                                                                                                    
                                                                                                    
                                                                                                    
                                                                                                    
                                                                                                    
                                                                                                    
                                                                                                    
                                                                                                    
                                                                                                    
                                                                                                    
                                                                                                    
                                                                                                    
                                                                                                    
                                                                                                    
                                                                                                    
                                                                                                    
                                                                                                    
                                                                                                    
                                                                                                    
                                                                                                    
                           
<?xpacket end="w"?></metadata>
<defs>
    <style>
      .cls-1 {
        fill: #fff;
        fill-rule: evenodd;
      }
    </style>
  </defs>
  <path id="fa-vk" class="cls-1" d="M2118.67,7241.09a0.324,0.324,0,0,0-.2-0.12,0.959,0.959,0,0,0-.42-0.01l-1.91.01a0.565,0.565,0,0,0-.13,0,0.507,0.507,0,0,1-.09.02,0.053,0.053,0,0,1-.03.02l-0.02.02a0.251,0.251,0,0,0-.08.07,0.672,0.672,0,0,0-.06.12,12.008,12.008,0,0,1-.71,1.53c-0.16.29-.31,0.53-0.45,0.74a3.92,3.92,0,0,1-.34.45,2.619,2.619,0,0,1-.26.24,0.212,0.212,0,0,1-.17.07,0.425,0.425,0,0,1-.11-0.02,0.5,0.5,0,0,1-.15-0.17,0.666,0.666,0,0,1-.07-0.27,1.39,1.39,0,0,1-.03-0.27c0-.08,0-0.19.01-0.33v-0.29c0-.17.01-0.35,0.01-0.56s0.01-.36.02-0.48,0.01-.24.01-0.37a1.239,1.239,0,0,0-.03-0.31,0.808,0.808,0,0,0-.07-0.22,0.3,0.3,0,0,0-.13-0.16,1.121,1.121,0,0,0-.22-0.1,4.474,4.474,0,0,0-.9-0.08,4.2,4.2,0,0,0-1.58.16,1.156,1.156,0,0,0-.25.2c-0.08.1-.09,0.16-0.03,0.17a0.82,0.82,0,0,1,.56.29l0.04,0.08a1.512,1.512,0,0,1,.09.31,3.606,3.606,0,0,1,.06.5,5.982,5.982,0,0,1,0,.85c-0.02.24-.04,0.42-0.06,0.56a1.223,1.223,0,0,1-.09.32c-0.04.08-.07,0.13-0.08,0.15a0.085,0.085,0,0,1-.03.03,0.566,0.566,0,0,1-.18.03,0.451,0.451,0,0,1-.23-0.09,2.1,2.1,0,0,1-.27-0.26,4.113,4.113,0,0,1-.32-0.47c-0.12-.2-0.24-0.44-0.37-0.71l-0.11-.2c-0.06-.12-0.15-0.31-0.27-0.55s-0.21-.48-0.3-0.71a0.6,0.6,0,0,0-.16-0.22l-0.03-.02c-0.03-.01-0.06-0.03-0.11-0.05a0.88,0.88,0,0,0-.15-0.05l-1.81.02a0.447,0.447,0,0,0-.38.13l-0.03.04a0.268,0.268,0,0,0-.02.11,0.742,0.742,0,0,0,.04.18c0.27,0.64.56,1.26,0.87,1.85s0.58,1.08.81,1.44,0.46,0.71.7,1.03,0.39,0.53.47,0.62,0.14,0.16.18,0.2l0.17,0.17a3.5,3.5,0,0,0,.46.39c0.21,0.15.44,0.3,0.68,0.45a3.445,3.445,0,0,0,.87.36,2.986,2.986,0,0,0,.97.11h0.76a0.5,0.5,0,0,0,.35-0.15l0.03-.03c0.01-.03.03-0.07,0.05-0.13a0.991,0.991,0,0,0,.02-0.18,2.156,2.156,0,0,1,.04-0.53,1.41,1.41,0,0,1,.11-0.36,1.044,1.044,0,0,1,.15-0.2,0.736,0.736,0,0,1,.11-0.1,0.169,0.169,0,0,1,.05-0.02,0.427,0.427,0,0,1,.38.1,2.519,2.519,0,0,1,.4.4c0.12,0.16.27,0.33,0.45,0.53a3.351,3.351,0,0,0,.46.43l0.14,0.09a1.882,1.882,0,0,0,.34.15,0.807,0.807,0,0,0,.37.03l1.69-.03a0.811,0.811,0,0,0,.39-0.08,0.334,0.334,0,0,0,.17-0.19,0.448,0.448,0,0,0,0-.23,0.824,0.824,0,0,0-.04-0.18,0.726,0.726,0,0,0-.05-0.09,6.6,6.6,0,0,0-1.26-1.5l-0.01-.02h-0.01l-0.01-.01h0a7.157,7.157,0,0,1-.54-0.56,0.514,0.514,0,0,1-.09-0.55,4.946,4.946,0,0,1,.59-0.89c0.18-.24.33-0.44,0.43-0.58q1.155-1.575.99-2.01Z" transform="translate(-2106.03 -7240.63)"/>
</svg>
