<svg xmlns="http://www.w3.org/2000/svg" xmlns:xlink="http://www.w3.org/1999/xlink" width="9.44" height="9.4" viewBox="0 0 9.44 9.4">
  <metadata><?xpacket begin="﻿" id="W5M0MpCehiHzreSzNTczkc9d"?>
<x:xmpmeta xmlns:x="adobe:ns:meta/" x:xmptk="Adobe XMP Core 5.6-c142 79.160924, 2017/07/13-01:06:39        ">
   <rdf:RDF xmlns:rdf="http://www.w3.org/1999/02/22-rdf-syntax-ns#">
      <rdf:Description rdf:about=""/>
   </rdf:RDF>
</x:xmpmeta>
                                                                                                    
                                                                                                    
                                                                                                    
                                                                                                    
                                                                                                    
                                                                                                    
                                                                                                    
                                                                                                    
                                                                                                    
                                                                                                    
                                                                                                    
                                                                                                    
                                                                                                    
                                                                                                    
                                                                                                    
                                                                                                    
                                                                                                    
                                                                                                    
                                                                                                    
                                                                                                    
                           
<?xpacket end="w"?></metadata>
<defs>
    <style>
      .cls-1 {
        fill-rule: evenodd;
        filter: url(#filter);
      }
    </style>
    <filter id="filter" x="2278" y="10758.1" width="9.44" height="9.4" filterUnits="userSpaceOnUse">
      <feFlood result="flood" flood-color="#fff"/>
      <feComposite result="composite" operator="in" in2="SourceGraphic"/>
      <feBlend result="blend" in2="SourceGraphic"/>
    </filter>
  </defs>
  <path id="fa-phone" class="cls-1" d="M2287.41,10765.4a1.351,1.351,0,0,0-.51-0.4,0.949,0.949,0,0,1-.36-0.2c-0.16-.1-0.3-0.1-0.43-0.2a0.658,0.658,0,0,0-.36-0.2,0.269,0.269,0,0,0-.16-0.1,0.613,0.613,0,0,0-.24-0.2h-0.19a0.358,0.358,0,0,0-.34.2,1.319,1.319,0,0,0-.37.4c-0.11.1-.22,0.3-0.35,0.4a0.717,0.717,0,0,1-.31.2,0.153,0.153,0,0,1-.15-0.1h-0.14a0.44,0.44,0,0,0-.16-0.1,0.165,0.165,0,0,0-.12-0.1,6.708,6.708,0,0,1-1.58-1.1,9.919,9.919,0,0,1-1.16-1.6,0.177,0.177,0,0,0-.08-0.1c-0.05-.1-0.08-0.2-0.09-0.2s-0.04-.1-0.06-0.1c-0.02-.1-0.03-0.2-0.03-0.2a0.4,0.4,0,0,1,.19-0.3,2.139,2.139,0,0,0,.41-0.4q0.225-.15.42-0.3a0.954,0.954,0,0,0,.19-0.4s-0.02-.1-0.05-0.2a0.557,0.557,0,0,1-.14-0.2,0.359,0.359,0,0,1-.12-0.2l-0.21-.3c-0.07-.1-0.15-0.3-0.23-0.4-0.09-.2-0.15-0.3-0.2-0.4a1.03,1.03,0,0,0-.36-0.5h-0.61a2.6,2.6,0,0,0-.46.2,1.541,1.541,0,0,0-.71.8,2.382,2.382,0,0,0-.34,1.2,3.448,3.448,0,0,0,.02.4c0.02,0.1.05,0.2,0.09,0.4a1.71,1.71,0,0,1,.09.3c0.03,0.1.07,0.2,0.14,0.4a1.744,1.744,0,0,1,.12.3,10.759,10.759,0,0,0,.56,1.2,12.311,12.311,0,0,0,1.44,1.7,14.146,14.146,0,0,0,1.77,1.5,4.395,4.395,0,0,0,1.17.5,3.408,3.408,0,0,1,.33.2,1.638,1.638,0,0,1,.37.1,0.494,0.494,0,0,1,.32.1c0.14,0,.27.1,0.39,0.1h0.35a2.858,2.858,0,0,0,1.24-.3,1.74,1.74,0,0,0,.82-0.8,1.381,1.381,0,0,0,.14-0.4,2.331,2.331,0,0,0,.07-0.5,0.355,0.355,0,0,0-.02-0.1h0Z" transform="translate(-2278 -10758.1)"/>
</svg>
