<svg xmlns="http://www.w3.org/2000/svg" width="12.69" height="7.46"><path d="M12.64.46a.324.324 0 0 0-.2-.12.959.959 0 0 0-.42-.01l-1.91.01a.565.565 0 0 0-.13 0 .507.507 0 0 1-.09.02.053.053 0 0 1-.03.02L9.84.4a.251.251 0 0 0-.08.07.672.672 0 0 0-.06.12 12.008 12.008 0 0 1-.71 1.53c-.16.29-.31.53-.45.74a3.92 3.92 0 0 1-.34.45 2.619 2.619 0 0 1-.26.24.212.212 0 0 1-.17.07.425.425 0 0 1-.11-.02.5.5 0 0 1-.15-.17.666.666 0 0 1-.07-.27 1.39 1.39 0 0 1-.03-.27c0-.08 0-.19.01-.33v-.29c0-.17.01-.35.01-.56s.01-.36.02-.48.01-.24.01-.37a1.239 1.239 0 0 0-.03-.31.808.808 0 0 0-.07-.22.3.3 0 0 0-.13-.16 1.121 1.121 0 0 0-.22-.1 4.474 4.474 0 0 0-.9-.08 4.2 4.2 0 0 0-1.58.16 1.156 1.156 0 0 0-.25.2c-.08.1-.09.16-.03.17a.82.82 0 0 1 .56.29l.04.08a1.512 1.512 0 0 1 .09.31 3.606 3.606 0 0 1 .06.5 5.982 5.982 0 0 1 0 .85c-.02.24-.04.42-.06.56a1.223 1.223 0 0 1-.09.32c-.04.08-.07.13-.08.15a.085.085 0 0 1-.03.03.566.566 0 0 1-.18.03.451.451 0 0 1-.23-.09 2.1 2.1 0 0 1-.27-.26 4.113 4.113 0 0 1-.32-.47c-.12-.2-.24-.44-.37-.71l-.11-.2c-.06-.12-.15-.31-.27-.55s-.21-.48-.3-.71a.6.6 0 0 0-.16-.22L2.5.41C2.47.4 2.44.38 2.39.36a.88.88 0 0 0-.15-.05L.43.33a.447.447 0 0 0-.38.13L.02.5A.268.268 0 0 0 0 .61a.742.742 0 0 0 .04.18c.27.64.56 1.26.87 1.85s.58 1.08.81 1.44.46.71.7 1.03.39.53.47.62.14.16.18.2l.17.17a3.5 3.5 0 0 0 .46.39c.21.15.44.3.68.45a3.445 3.445 0 0 0 .87.36 2.986 2.986 0 0 0 .97.11h.76a.5.5 0 0 0 .35-.15l.03-.03c.01-.03.03-.07.05-.13a.991.991 0 0 0 .02-.18 2.156 2.156 0 0 1 .04-.53 1.41 1.41 0 0 1 .11-.36 1.044 1.044 0 0 1 .15-.2.736.736 0 0 1 .11-.1.169.169 0 0 1 .05-.02.427.427 0 0 1 .38.1 2.519 2.519 0 0 1 .4.4c.12.16.27.33.45.53a3.351 3.351 0 0 0 .46.43l.14.09a1.882 1.882 0 0 0 .34.15.807.807 0 0 0 .37.03l1.69-.03a.811.811 0 0 0 .39-.08.334.334 0 0 0 .17-.19.448.448 0 0 0 0-.23.824.824 0 0 0-.04-.18.726.726 0 0 0-.05-.09 6.6 6.6 0 0 0-1.26-1.5l-.01-.02h-.01l-.01-.01a7.157 7.157 0 0 1-.54-.56.514.514 0 0 1-.09-.55 4.946 4.946 0 0 1 .59-.89c.18-.24.33-.44.43-.58q1.155-1.575.99-2.01z" fill="#fff" fill-rule="evenodd"/></svg>