<svg id="_1" data-name="1" xmlns="http://www.w3.org/2000/svg" viewBox="0 0 232.05 73.37"><defs><style>.cls-1,.cls-2{fill:#005f9d;fill-rule:evenodd}.cls-2{fill:#fff}</style></defs><path class="cls-1" d="M160.71 516.71l-.48 10.48-14.88-10.54-58.81.3a5.84 5.84 0 0 1-4.09-1.67 5.64 5.64 0 0 1-1.7-4v-51.76a5.63 5.63 0 0 1 1.71-4 5.87 5.87 0 0 1 4.11-1.67h95.83a5.87 5.87 0 0 1 4.11 1.67 5.63 5.63 0 0 1 1.71 4v51.78a5.66 5.66 0 0 1-1.7 4 5.79 5.79 0 0 1-4.06 1.67c-7.26-.07-14.46-.18-21.75-.26z" transform="translate(-80.71 -453.82)"/><path class="cls-2" d="M157.62 521.9l.37-8c8.15.09 16.3.2 24.45.27a2.93 2.93 0 0 0 2.92-2.87v-51.78a2.86 2.86 0 0 0-.87-2.05 3 3 0 0 0-2.09-.85H86.54a3 3 0 0 0-2.09.85 2.87 2.87 0 0 0-.87 2.05v51.76a2.88 2.88 0 0 0 .88 2 3 3 0 0 0 2.07.84l59.74-.3z" transform="translate(-80.71 -453.82)"/><path class="cls-1" d="M100.67 474c-1.29 1.68-2.63 3.34-4 5v1.84a2.25 2.25 0 0 1-.76 1.8 2.56 2.56 0 0 1-1.71.62 2.42 2.42 0 0 1-1.67-.6 2.22 2.22 0 0 1-.79-1.8v-16.81a2.27 2.27 0 0 1 .78-1.8 2.42 2.42 0 0 1 1.68-.6 2.55 2.55 0 0 1 1.71.63 2.23 2.23 0 0 1 .75 1.76v7.2l6.74-8.64a2.36 2.36 0 0 1 1.88-.95 2.53 2.53 0 0 1 1.78.72 2.28 2.28 0 0 1 .77 1.69 2.37 2.37 0 0 1-.55 1.46l-3.43 4.48 6.39 9.53a2.41 2.41 0 0 1 .44 1.35 2.2 2.2 0 0 1-.8 1.71 2.61 2.61 0 0 1-1.75.68 2.38 2.38 0 0 1-2-1.11zm61.24-1.75l14.74-11v19.5a2.21 2.21 0 0 1-.76 1.78 2.71 2.71 0 0 1-3.43 0 2.23 2.23 0 0 1-.74-1.78v-9.42L157 483.6V464a2.23 2.23 0 0 1 .75-1.76 2.65 2.65 0 0 1 3.44 0 2.25 2.25 0 0 1 .73 1.76v8.21zm-12.77-.07v-5.66h-9.35v14.39a2.23 2.23 0 0 1-.75 1.76 2.65 2.65 0 0 1-3.44 0 2.25 2.25 0 0 1-.73-1.76v-19.14H154v19.14a2.23 2.23 0 0 1-.75 1.76 2.65 2.65 0 0 1-3.44 0 2.25 2.25 0 0 1-.73-1.76v-8.72z" transform="translate(-80.71 -453.82)"/><path d="M100.67 497.84c-1.29 1.68-2.63 3.34-4 5v1.84a2.25 2.25 0 0 1-.76 1.8 2.56 2.56 0 0 1-1.71.62 2.42 2.42 0 0 1-1.67-.6 2.22 2.22 0 0 1-.79-1.8v-16.8a2.27 2.27 0 0 1 .78-1.8 2.42 2.42 0 0 1 1.68-.6 2.55 2.55 0 0 1 1.71.63 2.23 2.23 0 0 1 .75 1.76v7.2l6.74-8.64a2.36 2.36 0 0 1 1.88-.95 2.53 2.53 0 0 1 1.78.72 2.28 2.28 0 0 1 .77 1.69 2.37 2.37 0 0 1-.55 1.46l-3.46 4.43 6.39 9.53a2.41 2.41 0 0 1 .44 1.35 2.2 2.2 0 0 1-.8 1.71 2.61 2.61 0 0 1-1.75.68 2.38 2.38 0 0 1-2-1.11zm71.05-1.4l-14.74 11v-19.5a2.21 2.21 0 0 1 .76-1.78 2.71 2.71 0 0 1 3.43 0 2.23 2.23 0 0 1 .74 1.77v9.42l14.74-12.27v19.55a2.23 2.23 0 0 1-.75 1.76 2.65 2.65 0 0 1-3.44 0 2.25 2.25 0 0 1-.73-1.76v-8.21zM154 486.11v18.61a2.23 2.23 0 0 1-.75 1.76 2.65 2.65 0 0 1-3.44 0 2.25 2.25 0 0 1-.73-1.76v-14.38h-9.35v14.34a2.23 2.23 0 0 1-.75 1.76 2.65 2.65 0 0 1-3.44 0 2.25 2.25 0 0 1-.73-1.76v-19.05H154v.5zm-41.92-8.29A10.15 10.15 0 0 1 111 476a10.69 10.69 0 0 1-.64-2 9.24 9.24 0 0 1-.22-2 9.15 9.15 0 0 1 .22-2 10.41 10.41 0 0 1 .65-2 10.22 10.22 0 0 1 1.06-1.87 10.48 10.48 0 0 1 2.44-2.49 11.35 11.35 0 0 1 6.65-2.16 11.57 11.57 0 0 1 2.66.31 11.4 11.4 0 0 1 2.52.93 11.07 11.07 0 0 1 2.19 1.47 10.06 10.06 0 0 1 1.73 1.94 10 10 0 0 1 1.93 5.87 9.61 9.61 0 0 1-.49 3.05 10.38 10.38 0 0 1-1.44 2.82 10.5 10.5 0 0 1-1.77 2 10.76 10.76 0 0 1-2.16 1.47 11.77 11.77 0 0 1-2.49.92 11 11 0 0 1-2.7.34 11.24 11.24 0 0 1-3.51-.55 11 11 0 0 1-3.15-1.61 10.53 10.53 0 0 1-2.4-2.62z" transform="translate(-80.71 -453.82)" fill="#ed7523" fill-rule="evenodd"/><path class="cls-2" d="M113.88 471c.8-3.25 3.58-5.19 7.13-5.67-2.6 1.76-4.23 2.77-5.17 6.19a1 1 0 0 1-1.25.7 1.09 1.09 0 0 1-.71-1.22z" transform="translate(-80.71 -453.82)"/><path class="cls-1" d="M131.62 492.94c-.06 3.16.19 7.37-1.65 10.1a9.1 9.1 0 0 1-1 1.22 9.38 9.38 0 0 1-3.75 2.37l-.29.09c-.29.09-.58.16-.87.23a13.08 13.08 0 0 1-1.41.24l-.45.05h-.83a11.24 11.24 0 0 1-7.75-2.64 2.3 2.3 0 0 1-.06-3.45 2.37 2.37 0 0 1 3.36-.06 6.52 6.52 0 0 0 4.43 1.36 6.45 6.45 0 0 0 2.83-.59 4.21 4.21 0 0 0 1.9-1.83 12 12 0 0 1-3.46.6h-1.48a9.77 9.77 0 0 1-6.2-2.31 8.45 8.45 0 0 1-2.61-6.58v-3.82a2.25 2.25 0 0 1 .73-1.76 2.65 2.65 0 0 1 3.44 0 2.23 2.23 0 0 1 .75 1.76v3.82c0 2.94 1.69 4.09 4.56 4.12h.7c2.75-.12 4.23-1.36 4.23-4.11v-3.82a2.25 2.25 0 0 1 .73-1.76 2.65 2.65 0 0 1 3.44 0 2.23 2.23 0 0 1 .75 1.76v3.82c.02.38 0 .79-.04 1.19z" transform="translate(-80.71 -453.82)"/><path class="cls-2" d="M215 480.11h-.91v-7h-4v7h-.91v-7.85H215v7.85zm9-3.93a4.33 4.33 0 0 1-1 3 3.35 3.35 0 0 1-2.65 1.08 3.39 3.39 0 0 1-2.67-1.06 4.35 4.35 0 0 1-.94-3 4.3 4.3 0 0 1 .95-3 3.41 3.41 0 0 1 2.68-1.06 3.34 3.34 0 0 1 2.64 1.07 4.31 4.31 0 0 1 1 3zm-6.25 0a3.73 3.73 0 0 0 .68 2.42 2.41 2.41 0 0 0 2 .82 2.39 2.39 0 0 0 2-.82 3.78 3.78 0 0 0 .67-2.42 3.74 3.74 0 0 0-.66-2.4 2.37 2.37 0 0 0-2-.82 2.42 2.42 0 0 0-2 .82 3.69 3.69 0 0 0-.68 2.4zm10.09 3.93h-.91v-7h-2.48v-.81h5.88v.81h-2.48v7zm8.64-5.56a2.2 2.2 0 0 1-.81 1.83 3.69 3.69 0 0 1-2.33.64h-.92v3.09h-.91v-7.85h2q2.94 0 2.94 2.29zm-4.06 1.69h.82a3 3 0 0 0 1.75-.39 1.44 1.44 0 0 0 .54-1.25 1.36 1.36 0 0 0-.51-1.16 2.67 2.67 0 0 0-1.59-.38h-1v3.19zm10.08 3.87h-4.37v-7.85h4.37v.81H239v2.53h3.25v.8H239v2.89h3.46v.81zm6.83-2.29a2.08 2.08 0 0 1-.69 1.73 3.31 3.31 0 0 1-2.1.56h-2.3v-7.85h4.63v.81h-3.72v2.54h1.22a5 5 0 0 1 1.69.24 1.9 1.9 0 0 1 1 .71 2.25 2.25 0 0 1 .31 1.27zm-4.18 1.49h1.28a2.5 2.5 0 0 0 1.48-.35 1.35 1.35 0 0 0 .47-1.15 1.21 1.21 0 0 0-.47-1.08 3.08 3.08 0 0 0-1.65-.32h-1.11v2.9zm5.83-7.06h.85v4.36q0 1.21-.08 2.19l4.4-6.55h1v7.85h-.86v-4.32c0-.72 0-1.47.09-2.26l-4.38 6.59h-1v-7.85zm10.78 7.85h-.91v-7h-2.48v-.81h5.88v.81h-2.48v7zm8 0h-4.37v-7.85h4.37v.81h-3.46v2.53h3.25v.8h-3.25v2.89h3.46v.81zm7.32 0h-.91v-7h-2.55l-.17 1.29q-.33 2.57-.58 3.76a3.76 3.76 0 0 1-.66 1.65 1.33 1.33 0 0 1-1.08.46 1.81 1.81 0 0 1-.71-.13v-.76a1.37 1.37 0 0 0 .61.14.65.65 0 0 0 .5-.23 2.1 2.1 0 0 0 .38-.81 21.66 21.66 0 0 0 .41-2.19q.25-1.61.55-4h4.22v7.85zm7.57-2.29a2.06 2.06 0 0 1-.73 1.69 3.18 3.18 0 0 1-2.08.6h-2.61v-7.85h.91v3.35h1.56a3.6 3.6 0 0 1 2.19.57 1.93 1.93 0 0 1 .75 1.64zm-4.5 1.49h1.6q2 0 2-1.5a1.2 1.2 0 0 0-.5-1.06 2.93 2.93 0 0 0-1.61-.34h-1.44v2.9zm9.51-6.35a2.57 2.57 0 0 0-2 .86 3.48 3.48 0 0 0-.75 2.36 3.54 3.54 0 0 0 .72 2.38 2.56 2.56 0 0 0 2.06.84 7.06 7.06 0 0 0 1.87-.3v.8a5.74 5.74 0 0 1-2 .31 3.4 3.4 0 0 1-2.67-1.05 4.33 4.33 0 0 1-.94-3 4.72 4.72 0 0 1 .45-2.13 3.24 3.24 0 0 1 1.31-1.41 4 4 0 0 1 2-.49 4.88 4.88 0 0 1 2.16.45l-.39.78a4.14 4.14 0 0 0-1.78-.42zm9.22 7.14h-1.11l-3.63-4v4h-.91v-7.85h.91v3.8l3.54-3.8h1l-3.47 3.81 3.62 4zm1.09-7.85h.85v4.36q0 1.21-.08 2.19l4.4-6.55h1v7.85h-.86v-4.32c0-.72 0-1.47.09-2.26l-4.37 6.6h-1v-7.85zm12.74 7.85h-4.37v-7.85h4.37v.81h-3.41v2.53h3.25v.8h-3.25v2.89h3.46v.81zM215 495.49h-.91v-7h-4v7h-.91v-7.85H215v7.85zm7.13-5.56a2.2 2.2 0 0 1-.81 1.83 3.69 3.69 0 0 1-2.33.64h-.92v3.09h-.87v-7.85h2q2.94 0 2.94 2.29zm-4.06 1.69h.82a3 3 0 0 0 1.75-.39 1.44 1.44 0 0 0 .54-1.25 1.36 1.36 0 0 0-.51-1.16 2.66 2.66 0 0 0-1.59-.38h-1v3.19zm12.52-.06a4.33 4.33 0 0 1-1 3 3.35 3.35 0 0 1-2.59 1.04 3.39 3.39 0 0 1-2.67-1.06 4.35 4.35 0 0 1-.94-3 4.3 4.3 0 0 1 .95-3 3.41 3.41 0 0 1 2.68-1.06 3.34 3.34 0 0 1 2.64 1.07 4.31 4.31 0 0 1 1 3zm-6.25 0a3.73 3.73 0 0 0 .68 2.42 2.41 2.41 0 0 0 2 .82 2.39 2.39 0 0 0 2-.82 3.78 3.78 0 0 0 .66-2.42 3.74 3.74 0 0 0-.66-2.4 2.38 2.38 0 0 0-2-.82 2.42 2.42 0 0 0-2 .82 3.69 3.69 0 0 0-.68 2.4zm12.37-3.91v.82h-3.46v7h-.91v-7.85h4.37zm6.32 2.29a2.2 2.2 0 0 1-.81 1.83 3.69 3.69 0 0 1-2.33.64H239v3.09h-.91v-7.85h2q2.94 0 2.94 2.29zm-4.03 1.68h.82a3 3 0 0 0 1.75-.39 1.44 1.44 0 0 0 .54-1.25 1.36 1.36 0 0 0-.51-1.16 2.67 2.67 0 0 0-1.59-.38h-1v3.19zm10.09 3.87l-1-2.49H245l-1 2.49h-.92l3.1-7.88h.82l3.09 7.88h-.99zm-1.26-3.32l-.91-2.43c-.12-.31-.24-.69-.36-1.13a10 10 0 0 1-.34 1.13l-.92 2.43h2.54zm6.76 3.32l-2.66-7q.07.83.08 2v5h-.84v-7.85h1.37l2.49 6.47 2.51-6.47h1.36v7.85h-.9v-5.06q0-.87.08-1.89l-2.69 6.95h-.73zm9.92 0l-2.66-7q.07.83.08 2v5H261v-7.85h1.37l2.49 6.47 2.51-6.47h1.36v7.85h-.83v-5.06q0-.87.08-1.89l-2.69 6.95h-.73zm6.45 0v-7.85h.91V491h1.28a3.53 3.53 0 0 1 2.14.55 1.94 1.94 0 0 1 .73 1.66 2.1 2.1 0 0 1-.69 1.7 3.06 3.06 0 0 1-2 .59H271zm.91-.78h1.33a2.22 2.22 0 0 0 1.43-.38 1.39 1.39 0 0 0 .46-1.13 1.2 1.2 0 0 0-.48-1.06 2.82 2.82 0 0 0-1.56-.33h-1.17v2.9zm6.31.78h-.91v-7.85h.91v7.85zm-70 14h.61a18.52 18.52 0 0 0 1.23-3.11 21.36 21.36 0 0 0 .67-3.35h4.57v6.46h1v3.67h-1.6v-2.29h-4.91v2.29h-1.6v-3.67zm3.82-5.09a18.79 18.79 0 0 1-.57 2.6 18.57 18.57 0 0 1-.9 2.48h3.06v-5.08H212zm11.71 6.46H222v-6.46h-1.92l-.09.72q-.33 2.74-.59 3.85a3 3 0 0 1-.74 1.56 1.83 1.83 0 0 1-1.32.44 2.43 2.43 0 0 1-.79-.12v-1.36a1.8 1.8 0 0 0 .58.11.51.51 0 0 0 .45-.26 3.16 3.16 0 0 0 .31-1q.15-.71.39-2.31t.42-3h5v7.85zm4.62-3l-1.83 3h-1.85l2.23-3.45a2.1 2.1 0 0 1-1-.83 2.42 2.42 0 0 1-.36-1.32 2 2 0 0 1 .77-1.66 3.57 3.57 0 0 1 2.2-.58H231v7.85h-1.66v-3h-1zm1-3.47h-.82a1.82 1.82 0 0 0-1 .23.85.85 0 0 0-.36.77 1 1 0 0 0 .34.82 1.56 1.56 0 0 0 1.05.3h.78v-2.12zm12.89 6.48h-1.89l-2.85-4v4h-1.66V503h1.66v3.8l2.81-3.8h1.77l-2.86 3.77 3 4.08zm5.79 0h1.79l-2.75-7.87h-2l-2.77 7.88H244l.57-1.87h2.86l.57 1.87zm-1-3.26h-2q.84-2.71 1-3.4c0 .13.08.3.14.53l.89 2.87zm5.55-.81L250 503h1.71l2.54 3.8V503h1.55v3.8l2.54-3.8H260l-2.64 3.77 2.79 4.08h-1.78l-2.62-4v4h-1.55v-4l-2.62 4h-1.78l2.79-4.08zm7.62 2.69h.61a18.52 18.52 0 0 0 1.23-3.11 21.36 21.36 0 0 0 .67-3.35h4.57v6.46h1v3.67h-1.6v-2.29h-4.91v2.29h-1.6v-3.67zm3.83-5.08a18.8 18.8 0 0 1-.57 2.6 18.59 18.59 0 0 1-.9 2.48h3.06v-5.09h-1.59zm12.63 2.53a4.26 4.26 0 0 1-1 3 4.19 4.19 0 0 1-5.54 0 4.27 4.27 0 0 1-1-3 4.22 4.22 0 0 1 1-3 3.62 3.62 0 0 1 2.78-1 3.57 3.57 0 0 1 2.77 1 4.27 4.27 0 0 1 1 3zm-5.73 0a3.29 3.29 0 0 0 .5 2 1.75 1.75 0 0 0 1.49.66q2 0 2-2.65t-2-2.65a1.76 1.76 0 0 0-1.5.67 3.27 3.27 0 0 0-.5 2zm12.38-3.94v1.37H280v6.47h-1.66V503h5zm8.11 3.91a4.26 4.26 0 0 1-1 3 4.19 4.19 0 0 1-5.54 0 4.27 4.27 0 0 1-1-3 4.22 4.22 0 0 1 1-3 3.62 3.62 0 0 1 2.78-1 3.57 3.57 0 0 1 2.77 1 4.27 4.27 0 0 1 1 3zm-5.73 0a3.29 3.29 0 0 0 .5 2 1.75 1.75 0 0 0 1.49.66q2 0 2-2.65t-2-2.65a1.76 1.76 0 0 0-1.5.67 3.27 3.27 0 0 0-.49 1.99z" transform="translate(-80.71 -453.82)"/></svg>