<svg xmlns="http://www.w3.org/2000/svg"><defs><style>.cls-1{fill-rule:evenodd;filter:url(#filter)}</style><filter id="filter" x="2468.97" y="8934.97" width="13.06" height="8" filterUnits="userSpaceOnUse"><feFlood result="flood" flood-color="#e3e3e3"/><feComposite result="composite" operator="in" in2="SourceGraphic"/><feBlend result="blend" in2="SourceGraphic"/></filter><style>.cls-1{fill-rule:evenodd}</style><style>.cls-1{fill:#eaeaea;fill-rule:evenodd}</style><style>.cls-1{fill-rule:evenodd;filter:url(#filter)}</style><filter id="filter" x="2278" y="10758.1" width="9.44" height="9.4" filterUnits="userSpaceOnUse"><feFlood result="flood" flood-color="#fff"/><feComposite result="composite" operator="in" in2="SourceGraphic"/><feBlend result="blend" in2="SourceGraphic"/></filter><style>.cls-1{fill-rule:evenodd;filter:url(#filter)}</style><filter id="filter" x="1170" y="4177" width="13" height="14" filterUnits="userSpaceOnUse"><feFlood result="flood" flood-color="#ee772f"/><feComposite result="composite" operator="in" in2="SourceGraphic"/><feBlend result="blend" in2="SourceGraphic"/></filter><style>.cls-1{fill:#fff;fill-rule:evenodd}</style></defs><symbol id="icon-angle-down" viewBox="0 0 13.06 8"><path id="fa-angle-down" class="cls-1" d="M2481.89 8935.81l-.65-.69a.422.422 0 0 0-.3-.14.389.389 0 0 0-.3.14l-5.14 5.39-5.14-5.39a.4.4 0 0 0-.61 0l-.65.69a.416.416 0 0 0-.13.31.438.438 0 0 0 .13.32l6.09 6.39a.4.4 0 0 0 .61 0l6.09-6.39a.438.438 0 0 0 .13-.32.416.416 0 0 0-.13-.31z" transform="translate(-2468.97 -8934.97)"/></symbol><symbol id="icon-check" viewBox="0 0 10 8"><path id="fa-check" class="cls-1" d="M2302.82 10527.1l-.88-.9a.573.573 0 0 0-.87 0l-4.24 4.4-1.9-2a.573.573 0 0 0-.87 0l-.88.9a.784.784 0 0 0 0 1l2.33 2.4.88.9a.584.584 0 0 0 .88 0l.88-.9 4.67-4.9a.453.453 0 0 0 .18-.4.666.666 0 0 0-.18-.5z" transform="translate(-2293 -10526)"/></symbol><symbol id="icon-map-marker" viewBox="0 0 6.91 10.156"><path id="fa-map-marker" class="cls-1" d="M1338.46 55.486a1.7 1.7 0 0 1-1.23-.5 1.689 1.689 0 0 1 0-2.4 1.758 1.758 0 0 1 2.45 0 1.689 1.689 0 0 1 0 2.4 1.692 1.692 0 0 1-1.22.5zm2.44-4.1a3.5 3.5 0 0 0-4.89 0 3.26 3.26 0 0 0-1.01 2.4 2.722 2.722 0 0 0 .22 1.186l2.47 5.128a.729.729 0 0 0 .31.345.87.87 0 0 0 .46.126.861.861 0 0 0 .45-.126.807.807 0 0 0 .32-.345l2.46-5.128a2.722 2.722 0 0 0 .22-1.186 3.26 3.26 0 0 0-1.01-2.395z" transform="translate(-1335 -50.406)"/></symbol><symbol id="icon-phone" viewBox="0 0 9.44 9.4"><path id="fa-phone" class="cls-1" d="M2287.41 10765.4a1.351 1.351 0 0 0-.51-.4.949.949 0 0 1-.36-.2c-.16-.1-.3-.1-.43-.2a.658.658 0 0 0-.36-.2.269.269 0 0 0-.16-.1.613.613 0 0 0-.24-.2h-.19a.358.358 0 0 0-.34.2 1.319 1.319 0 0 0-.37.4c-.11.1-.22.3-.35.4a.717.717 0 0 1-.31.2.153.153 0 0 1-.15-.1h-.14a.44.44 0 0 0-.16-.1.165.165 0 0 0-.12-.1 6.708 6.708 0 0 1-1.58-1.1 9.919 9.919 0 0 1-1.16-1.6.177.177 0 0 0-.08-.1c-.05-.1-.08-.2-.09-.2s-.04-.1-.06-.1c-.02-.1-.03-.2-.03-.2a.4.4 0 0 1 .19-.3 2.139 2.139 0 0 0 .41-.4q.225-.15.42-.3a.954.954 0 0 0 .19-.4s-.02-.1-.05-.2a.557.557 0 0 1-.14-.2.359.359 0 0 1-.12-.2l-.21-.3c-.07-.1-.15-.3-.23-.4-.09-.2-.15-.3-.2-.4a1.03 1.03 0 0 0-.36-.5h-.61a2.6 2.6 0 0 0-.46.2 1.541 1.541 0 0 0-.71.8 2.382 2.382 0 0 0-.34 1.2 3.448 3.448 0 0 0 .02.4c.02.1.05.2.09.4a1.71 1.71 0 0 1 .09.3c.03.1.07.2.14.4a1.744 1.744 0 0 1 .12.3 10.759 10.759 0 0 0 .56 1.2 12.311 12.311 0 0 0 1.44 1.7 14.146 14.146 0 0 0 1.77 1.5 4.395 4.395 0 0 0 1.17.5 3.408 3.408 0 0 1 .33.2 1.638 1.638 0 0 1 .37.1.494.494 0 0 1 .32.1c.14 0 .27.1.39.1h.35a2.858 2.858 0 0 0 1.24-.3 1.74 1.74 0 0 0 .82-.8 1.381 1.381 0 0 0 .14-.4 2.331 2.331 0 0 0 .07-.5.355.355 0 0 0-.02-.1z" transform="translate(-2278 -10758.1)"/></symbol><symbol id="icon-rouble" viewBox="0 0 13 14"><path id="fa-rouble" class="cls-1" d="M1178.2 4183.58h-3.25v-4.45h3.25a2.447 2.447 0 0 1 1.74.61 2.294 2.294 0 0 1 0 3.22 2.453 2.453 0 0 1-1.74.62zm.21-6.57h-5.48a.341.341 0 0 0-.24.09.317.317 0 0 0-.09.23v6.25h-2.27a.324.324 0 0 0-.24.09.317.317 0 0 0-.09.23v1.47a.3.3 0 0 0 .09.23.324.324 0 0 0 .24.09h2.27v1.17h-2.27a.3.3 0 0 0-.24.1.279.279 0 0 0-.09.22v1.28a.294.294 0 0 0 .09.22.324.324 0 0 0 .24.09h2.27v1.91a.317.317 0 0 0 .09.23.341.341 0 0 0 .24.09h1.7a.31.31 0 0 0 .22-.09.29.29 0 0 0 .1-.23v-1.91h5.14a.317.317 0 0 0 .23-.09.294.294 0 0 0 .09-.22v-1.28a.279.279 0 0 0-.09-.22.29.29 0 0 0-.23-.1h-5.14v-1.17h3.46a4.649 4.649 0 0 0 3.32-1.21 4.467 4.467 0 0 0 0-6.26 4.649 4.649 0 0 0-3.32-1.21z" transform="translate(-1170 -4177)"/></symbol><symbol id="icon-vk" viewBox="0 0 12.69 7.46"><path id="fa-vk" class="cls-1" d="M2118.67 7241.09a.324.324 0 0 0-.2-.12.959.959 0 0 0-.42-.01l-1.91.01a.565.565 0 0 0-.13 0 .507.507 0 0 1-.09.02.053.053 0 0 1-.03.02l-.02.02a.251.251 0 0 0-.08.07.672.672 0 0 0-.06.12 12.008 12.008 0 0 1-.71 1.53c-.16.29-.31.53-.45.74a3.92 3.92 0 0 1-.34.45 2.619 2.619 0 0 1-.26.24.212.212 0 0 1-.17.07.425.425 0 0 1-.11-.02.5.5 0 0 1-.15-.17.666.666 0 0 1-.07-.27 1.39 1.39 0 0 1-.03-.27c0-.08 0-.19.01-.33v-.29c0-.17.01-.35.01-.56s.01-.36.02-.48.01-.24.01-.37a1.239 1.239 0 0 0-.03-.31.808.808 0 0 0-.07-.22.3.3 0 0 0-.13-.16 1.121 1.121 0 0 0-.22-.1 4.474 4.474 0 0 0-.9-.08 4.2 4.2 0 0 0-1.58.16 1.156 1.156 0 0 0-.25.2c-.08.1-.09.16-.03.17a.82.82 0 0 1 .56.29l.04.08a1.512 1.512 0 0 1 .09.31 3.606 3.606 0 0 1 .06.5 5.982 5.982 0 0 1 0 .85c-.02.24-.04.42-.06.56a1.223 1.223 0 0 1-.09.32c-.04.08-.07.13-.08.15a.085.085 0 0 1-.03.03.566.566 0 0 1-.18.03.451.451 0 0 1-.23-.09 2.1 2.1 0 0 1-.27-.26 4.113 4.113 0 0 1-.32-.47c-.12-.2-.24-.44-.37-.71l-.11-.2c-.06-.12-.15-.31-.27-.55s-.21-.48-.3-.71a.6.6 0 0 0-.16-.22l-.03-.02c-.03-.01-.06-.03-.11-.05a.88.88 0 0 0-.15-.05l-1.81.02a.447.447 0 0 0-.38.13l-.03.04a.268.268 0 0 0-.02.11.742.742 0 0 0 .04.18c.27.64.56 1.26.87 1.85s.58 1.08.81 1.44.46.71.7 1.03.39.53.47.62.14.16.18.2l.17.17a3.5 3.5 0 0 0 .46.39c.21.15.44.3.68.45a3.445 3.445 0 0 0 .87.36 2.986 2.986 0 0 0 .97.11h.76a.5.5 0 0 0 .35-.15l.03-.03c.01-.03.03-.07.05-.13a.991.991 0 0 0 .02-.18 2.156 2.156 0 0 1 .04-.53 1.41 1.41 0 0 1 .11-.36 1.044 1.044 0 0 1 .15-.2.736.736 0 0 1 .11-.1.169.169 0 0 1 .05-.02.427.427 0 0 1 .38.1 2.519 2.519 0 0 1 .4.4c.12.16.27.33.45.53a3.351 3.351 0 0 0 .46.43l.14.09a1.882 1.882 0 0 0 .34.15.807.807 0 0 0 .37.03l1.69-.03a.811.811 0 0 0 .39-.08.334.334 0 0 0 .17-.19.448.448 0 0 0 0-.23.824.824 0 0 0-.04-.18.726.726 0 0 0-.05-.09 6.6 6.6 0 0 0-1.26-1.5l-.01-.02h-.01l-.01-.01a7.157 7.157 0 0 1-.54-.56.514.514 0 0 1-.09-.55 4.946 4.946 0 0 1 .59-.89c.18-.24.33-.44.43-.58q1.155-1.575.99-2.01z" transform="translate(-2106.03 -7240.63)"/></symbol></svg>
